<svg xmlns="http://www.w3.org/2000/svg" xmlns:xlink="http://www.w3.org/1999/xlink" viewBox="0 0 8.86 8.86"><defs><style>.cls-1{fill:#fff;opacity:0.1;}.cls-2{opacity:0.2;fill:url(#linear-gradient);}.cls-3{opacity:0.4;fill:url(#linear-gradient-2);}.cls-4{opacity:0.6;fill:url(#linear-gradient-3);}</style><linearGradient id="linear-gradient" x1="4.43" y1="8.86" x2="4.43" y2="-0.31" gradientUnits="userSpaceOnUse"><stop offset="0" stop-color="#fff"/><stop offset="1" stop-color="#fff" stop-opacity="0"/></linearGradient><linearGradient id="linear-gradient-2" x1="4.43" y1="2.25" x2="4.43" y2="6.9" gradientUnits="userSpaceOnUse"><stop offset="0.01" stop-color="#fff"/><stop offset="1" stop-color="#fff" stop-opacity="0"/></linearGradient><linearGradient id="linear-gradient-3" x1="-6.14" y1="-86.32" x2="-6.14" y2="-84.2" gradientTransform="matrix(0.88, 0.47, -0.47, 0.88, -28.17, 80.98)" xlink:href="#linear-gradient-2"/></defs><g id="Layer_2" data-name="Layer 2"><g id="OBJECTS"><path class="cls-1" d="M8.86,4.43A4.43,4.43,0,1,1,4.43,0,4.43,4.43,0,0,1,8.86,4.43Z"/><path class="cls-2" d="M8.5,4.43A4.07,4.07,0,1,1,4.43.36,4.07,4.07,0,0,1,8.5,4.43Z"/><path class="cls-3" d="M7.72,4.43A3.29,3.29,0,1,1,4.43,1.14,3.29,3.29,0,0,1,7.72,4.43Z"/><path class="cls-4" d="M7.54,3.34a1.5,1.5,0,1,1-.62-2A1.5,1.5,0,0,1,7.54,3.34Z"/></g></g></svg>