<svg xmlns="http://www.w3.org/2000/svg" xmlns:xlink="http://www.w3.org/1999/xlink" viewBox="0 0 4.97 4.97"><defs><style>.cls-1{fill:#fff;opacity:0.1;}.cls-2{opacity:0.2;fill:url(#linear-gradient);}.cls-3{opacity:0.4;fill:url(#linear-gradient-2);}.cls-4{opacity:0.6;fill:url(#linear-gradient-3);}</style><linearGradient id="linear-gradient" x1="2.49" y1="4.98" x2="2.49" y2="-0.17" gradientUnits="userSpaceOnUse"><stop offset="0" stop-color="#fff"/><stop offset="1" stop-color="#fff" stop-opacity="0"/></linearGradient><linearGradient id="linear-gradient-2" x1="2.49" y1="1.26" x2="2.49" y2="3.87" gradientUnits="userSpaceOnUse"><stop offset="0.01" stop-color="#fff"/><stop offset="1" stop-color="#fff" stop-opacity="0"/></linearGradient><linearGradient id="linear-gradient-3" x1="-11.4" y1="-80.78" x2="-11.4" y2="-79.59" gradientTransform="matrix(0.88, 0.47, -0.47, 0.88, -23.86, 77.76)" xlink:href="#linear-gradient-2"/></defs><g id="Layer_2" data-name="Layer 2"><g id="OBJECTS"><path class="cls-1" d="M5,2.49A2.49,2.49,0,1,1,2.49,0,2.48,2.48,0,0,1,5,2.49Z"/><path class="cls-2" d="M4.77,2.49A2.29,2.29,0,1,1,2.49.2,2.28,2.28,0,0,1,4.77,2.49Z"/><path class="cls-3" d="M4.33,2.49A1.85,1.85,0,1,1,2.49.64,1.84,1.84,0,0,1,4.33,2.49Z"/><path class="cls-4" d="M4.24,1.88a.85.85,0,0,1-1.14.35.84.84,0,0,1-.35-1.14A.83.83,0,0,1,3.88.74.86.86,0,0,1,4.24,1.88Z"/></g></g></svg>