<svg xmlns="http://www.w3.org/2000/svg" xmlns:xlink="http://www.w3.org/1999/xlink" viewBox="0 0 13.34 13.34"><defs><style>.cls-1{fill:#fff;opacity:0.1;}.cls-2{opacity:0.2;fill:url(#linear-gradient);}.cls-3{opacity:0.4;fill:url(#linear-gradient-2);}.cls-4{opacity:0.6;fill:url(#linear-gradient-3);}</style><linearGradient id="linear-gradient" x1="6.67" y1="13.34" x2="6.67" y2="-0.47" gradientUnits="userSpaceOnUse"><stop offset="0" stop-color="#fff"/><stop offset="1" stop-color="#fff" stop-opacity="0"/></linearGradient><linearGradient id="linear-gradient-2" x1="6.67" y1="3.39" x2="6.67" y2="10.38" gradientUnits="userSpaceOnUse"><stop offset="0.01" stop-color="#fff"/><stop offset="1" stop-color="#fff" stop-opacity="0"/></linearGradient><linearGradient id="linear-gradient-3" x1="7.73" y1="-83.34" x2="7.73" y2="-80.16" gradientTransform="matrix(0.88, 0.47, -0.47, 0.88, -35.67, 72.76)" xlink:href="#linear-gradient-2"/></defs><g id="Layer_2" data-name="Layer 2"><g id="OBJECTS"><path class="cls-1" d="M13.34,6.67A6.67,6.67,0,1,1,6.67,0,6.67,6.67,0,0,1,13.34,6.67Z"/><path class="cls-2" d="M12.8,6.67A6.13,6.13,0,1,1,6.67.54,6.14,6.14,0,0,1,12.8,6.67Z"/><path class="cls-3" d="M11.61,6.67A4.95,4.95,0,1,1,6.67,1.72,4.94,4.94,0,0,1,11.61,6.67Z"/><path class="cls-4" d="M11.35,5A2.25,2.25,0,1,1,10.41,2,2.25,2.25,0,0,1,11.35,5Z"/></g></g></svg>