<svg xmlns="http://www.w3.org/2000/svg" width="35.84" height="36.875" viewBox="0 0 35.84 36.875">
  <defs>
    <style>
      .cls-1 {
        fill: #fff;
        fill-rule: evenodd;
      }
    </style>
  </defs>
  <path id="cart" class="cls-1" d="M1424.56,76.451a3.216,3.216,0,1,1,2.3-.944A3.115,3.115,0,0,1,1424.56,76.451Zm18,0a3.216,3.216,0,1,1,2.3-.944A3.115,3.115,0,0,1,1442.56,76.451Zm-19.48-29.666,4.18,8.72h12.83l4.72-8.72h-21.73Zm-1.89-3.686h25.2a2.7,2.7,0,0,1,2.47,1.438,2.771,2.771,0,0,1,.05,2.922l-5.31,9.619a5.225,5.225,0,0,1-1.46,1.551,3.471,3.471,0,0,1-2.01.607h-13.32l-2.2,4.18h21.69V67.1h-22.19a3.5,3.5,0,0,1-3.21-1.528,3.006,3.006,0,0,1,.06-3.326l2.75-5.034-6.57-13.979h-3.69V39.548h6.07Zm6.07,12.406h0Z" transform="translate(-1413.44 -39.563)"/>
</svg>
