<svg xmlns="http://www.w3.org/2000/svg" width="26.91" height="28.188" viewBox="0 0 26.91 28.188">
  <defs>
    <style>
      .cls-1 {
        fill: #fff;
        fill-rule: evenodd;
      }
    </style>
  </defs>
  <path id="cart-add" class="cls-1" d="M1094.9,967.42v-4.031h-4.11v-1.966h4.11v-4.03h1.99v4.03h4.08v1.966h-4.08v4.031h-1.99Zm-6,18.187a2.328,2.328,0,0,1-1.69-.689,2.344,2.344,0,0,1,0-3.342,2.42,2.42,0,0,1,3.38,0,2.344,2.344,0,0,1,0,3.342A2.312,2.312,0,0,1,1088.9,985.607Zm13.4,0a2.335,2.335,0,0,1-1.7-.689,2.368,2.368,0,0,1,0-3.342,2.432,2.432,0,0,1,3.39,0,2.368,2.368,0,0,1,0,3.342A2.328,2.328,0,0,1,1102.3,985.607Zm-13.4-6.784a2.54,2.54,0,0,1-2.37-1.294,2.487,2.487,0,0,1,.02-2.638l1.92-3.441-4.77-10.092h-2.72v-2.687h4.47l5.44,11.534h9.58l4.97-8.782,2.42,1.245-5,8.914a2.765,2.765,0,0,1-.95.983,2.591,2.591,0,0,1-1.41.36h-9.71l-1.82,3.211h16.08v2.687H1088.9Z" transform="translate(-1080.97 -957.406)"/>
</svg>
