<?xml version="1.0" encoding="utf-8"?>
<!-- Generator: Adobe Illustrator 25.4.6, SVG Export Plug-In . SVG Version: 6.00 Build 0)  -->
<svg version="1.1" id="Layer_1" xmlns="http://www.w3.org/2000/svg" xmlns:xlink="http://www.w3.org/1999/xlink" x="0px" y="0px"
	 viewBox="0 0 155 175.6" style="enable-background:new 0 0 155 175.6;" xml:space="preserve">
<style type="text/css">
	.st0{opacity:0.9;fill-rule:evenodd;clip-rule:evenodd;fill:#FDCCCC;enable-background:new    ;}
</style>
<path id="flower" class="st0" d="M99.6,97.8c-1.7-1.8-2.3-4.4-1.6-6.8c1.3-4,4.2-7.2,8.1-8.7c5.8-1.6,12.3-1.2,18.6-1.4
	c8.6-0.3,15.6-2.9,20.8-10.3c3.8-5.5,5.5-10.7,1.3-16.5c-0.5-0.8-1.1-1.5-1.8-2.2c-4.4-4.9-10.1-6.9-16.7-4.8
	c-4.6,1.4-8.6,4.6-13.3,7.2c-4.6,6.4-9.2,12.9-14.1,19.5c-3.3,4.4-7.3,10.5-13,6.5c-0.7-0.5-1.3-1.1-1.9-1.7c-3-3.5-4.7-8-5-12.6
	C81,59.5,84.1,53.2,86,47c2.2-7.2,5.1-14.3,6.8-21.6c1.4-6.2,0.5-10.9-2.5-14.3c-2.7-2.9-6.9-4.8-12.8-5.4
	c-10.7-1.2-17.9,4.5-17.9,15.5c0,5.3,1.9,10.7,3.3,15.9c2.2,8.1,5.6,15.9,7,24.1C72,74,64.9,79.2,52.4,74.8
	c-4.5-1.6-8.6-4.4-13.1-5.3c-7.1-1.5-14.3-2-21.5-1.7C11,67.9,5.5,73.5,5.6,80.3c0,0.2,0,0.3,0,0.5c-0.2,3.6,1,7.1,3.3,9.7
	c2.1,2.2,4.8,3.8,7.7,4.7c12.5,4.3,24.3,1,36.1-2.9c3.2-1.1,6.5-2.7,9.8-2.6c3,0.1,7.4,1,9,2.9c0.1,0.2,0.3,0.3,0.4,0.5
	c1.3,2.2,0.2,7.3-1.6,9.7c-4.9,6.4-11.7,11.4-16,18.1c-4.8,7.7-8.5,16-10.9,24.8c-1.8,6.6-0.5,11.7,3.2,15.8
	c2.1,2.2,4.5,4.1,7.2,5.4c9.9,5.3,15.6,3.8,22.2-5.2c7.6-10.4,6.8-22.1,4.9-33.8c-1.1-7-2.9-13.9-3.9-20.9
	c-0.9-5.7,0.8-10.9,6.7-12.5c4.1-1.1,7.2,0.1,9.6,2.7c1.1,1.3,2.1,2.8,2.8,4.3c5.5,11.6,11.2,23.1,17,34.6c0.9,1.7,1.9,3.3,3.2,4.7
	c5.3,5.9,13.8,9,20.1,7c7.8-2.5,15.4-15.7,12.1-24.2c-2.3-5.2-6.2-9.5-11.3-12.2c-8.2-4.1-17.5-6.4-26.3-9.3
	c-1.7-0.6-3.6-0.8-5.4-1.2C103.3,100.6,101.2,99.4,99.6,97.8 M149.3,48.3c0.5,0.5,0.9,1.1,1.4,1.6c5,6.4,5.8,13.4,1.8,20.6
	c-5.7,10-14.2,15.7-26,16c-5.5-0.2-11,0-16.5,0.6c-2.5,0.4-4.5,3.2-6.7,5c2,1.7,4.3,3.2,6.7,4.3c4,1.3,8.6,0.9,12.2,2.7
	c9,4.6,18.7,8.9,26.1,15.5c0.6,0.5,1.1,1,1.6,1.6c6.5,7.2,3.8,16.4-0.4,25c-4.6,10.2-16.6,14.8-26.8,10.2c-2.3-1-4.3-2.5-6.1-4.2
	c-1-1-2-2-2.9-3c-3.6-4-6.8-8.4-9.5-13.1c-4.7-8.5-8.1-17.7-12.5-26.3c-0.1-0.3-0.3-0.5-0.5-0.8c-1.4-1.5-4-2.4-6-3.6
	c-0.8,2.3-2.5,4.6-2.2,6.8c0.8,7,2.5,13.9,3.6,20.9c1.9,12.1,2.8,24.1-4.6,34.9c-4.5,6.5-9.3,12.9-18.4,12.8
	c-7.4,0-14.3-3.6-19.2-9.1c-5-5.5-7.8-12.9-6.9-20.3c1.9-15.2,9.6-27.3,20.1-38c3.5-3.6,6.8-7.4,10.1-11.1l-1.4-2.6
	c-6,1.8-12.1,3.4-18.1,5.4c-11.2,4.1-23.5,4.1-34.7,0.1C4.9,97.3-0.7,89,0.1,80c0.6-9.2,5.4-16,15.3-17.1c8.8-1,18,0.7,26.9,1.9
	c3.5,0.5,6.8,3.2,10.2,4.1c3.4,0.9,8.3,2.2,10.2,0.7c1.9-1.5,2.1-6.7,1.4-9.9c-1.8-7.6-4.8-15-7.1-22.5c-1.5-4.2-2.5-8.5-3.1-12.9
	c-0.9-9.7,2.7-17.9,11.6-22.1c10-4.3,21.6-1.9,28.9,6.1c5.1,5.7,5.9,12.8,3.5,20.5C95,38,91.6,47,88.8,56.3c-1.3,4.2-2.1,8.6-2.3,13
	c0.2,2.3,1.5,4.3,3.4,5.4c1.4,0.5,4.3-1.4,5.6-2.9c3.1-3.9,4.9-8.9,8.5-12.1c7.2-6.5,14.6-13.3,23.2-17.8
	C134.4,38,143.3,41.6,149.3,48.3"/>
</svg>
