<?xml version="1.0" encoding="utf-8"?>
<!-- Generator: Adobe Illustrator 25.4.6, SVG Export Plug-In . SVG Version: 6.00 Build 0)  -->
<svg version="1.1" id="Layer_1" xmlns="http://www.w3.org/2000/svg" xmlns:xlink="http://www.w3.org/1999/xlink" x="0px" y="0px"
	 viewBox="0 0 78.8 76.3" style="enable-background:new 0 0 78.8 76.3;" xml:space="preserve">
<style type="text/css">
	.st0{opacity:0.75;fill-rule:evenodd;clip-rule:evenodd;fill:#FFEA00;enable-background:new    ;}
</style>
<path id="flower" class="st0" d="M32.7,34c1.2,0,2.4-0.6,3-1.6c1-1.7,1.2-3.9,0.5-5.8c-1.3-2.6-3.6-4.8-5.5-7.2
	c-2.7-3.2-4-6.6-3-10.8c0.8-3.1,2.1-5.5,5.6-5.9c0.5-0.1,0.9-0.1,1.4-0.1c3.2,0,5.8,1.4,7.2,4.5c1,2.1,1.1,4.6,1.7,7.2
	c-0.8,3.7-1.7,7.5-2.5,11.4c-0.5,2.6-1.4,6,1.9,6.8c0.4,0.1,0.8,0.1,1.2,0.1c2.3-0.1,4.4-0.9,6.2-2.3c2.3-2,3.6-5.2,5.2-7.9
	c1.9-3.1,3.5-6.5,5.6-9.5c1.8-2.5,3.8-3.7,6-3.7c1.9,0,4,1,6.1,2.8c3.9,3.5,4.2,7.9,0.2,11.5c-1.9,1.7-4.5,2.8-6.8,4
	c-3.6,1.8-7.6,3.1-11,5.3c-5.3,3.4-4.9,7.7,0.7,10.7c2.1,1.1,4.4,1.6,6.1,3c2.8,2.1,5.4,4.5,7.6,7.2c1.1,1.2,1.6,2.8,1.5,4.5
	c-0.1,1.6-0.9,3.1-2.2,4.1c-1.2,1.2-2.9,1.9-4.6,2c-1.5,0-2.9-0.5-4.2-1.2c-5.6-3.1-8.2-8.5-10.6-14c-0.7-1.5-1.1-3.2-2.2-4.4
	c-1-1.1-2.7-2.3-4-2.3c-0.1,0-0.2,0-0.3,0c-1.2,0.2-2.7,2.3-3,3.7c-0.7,3.8-0.3,7.9-1.4,11.6c-1.2,4.2-3,8.3-5.4,12
	c-1.8,2.8-4.1,4-6.7,4c-1.5,0-2.9-0.3-4.3-0.8c-5.1-1.8-6.5-4.4-5.3-9.7c1.3-6.1,5.8-9.6,10.6-12.8c2.9-1.9,6-3.5,8.8-5.4
	c2.3-1.5,3.7-3.8,2.3-6.5c-0.7-1.6-2.3-2.7-4.1-2.6c-0.8,0-1.7,0.2-2.5,0.4c-6,1.8-12,3.4-18,5.1c-0.9,0.2-1.8,0.4-2.7,0.4
	c-3.9,0-7.7-2-9-5c-1.6-3.7,0.7-10.7,4.8-12.2c2.6-0.9,5.5-0.8,8.1,0.1c4.2,1.6,8,4.2,11.9,6.5c0.8,0.4,1.4,1,2.2,1.5
	C30.4,33.6,31.5,34,32.7,34 M34.5,0c-0.3,0-0.7,0-1,0c-3.9,0.3-6.7,2.2-8,6c-1.8,5.3-1.1,10.2,2.6,14.6c1.8,1.9,3.6,4,5.1,6.1
	c0.7,1,0.3,2.7,0.4,4c-1.3-0.2-2.5-0.5-3.7-1c-1.8-1-3.1-2.8-4.9-3.5c-4.6-1.8-9.3-3.9-14.1-4.4c-0.4,0-0.7-0.1-1.1-0.1
	c-4.7,0-7.1,3.9-8.9,8.3c-2.2,4.9,0,10.8,5,13c1.1,0.5,2.3,0.8,3.5,0.8c0.7,0,1.4,0.1,2,0.1c2.6,0,5.2-0.3,7.8-0.8
	c4.6-1,9-2.8,13.6-4c0.1,0,0.3-0.1,0.4-0.1c1,0,2.2,0.7,3.2,1c-0.6,1-0.9,2.4-1.7,3c-2.8,2-5.9,3.6-8.8,5.5c-5,3.2-9.6,6.8-11.1,13
	c-0.9,3.7-1.6,7.5,1.3,10.8c5.1,5.3,13.6,5.3,18.8,0.2c0.1-0.1,0.2-0.2,0.3-0.3c4.9-5.6,6.8-12.4,7.2-19.6c0.2-2.4,0.5-4.8,0.7-7.3
	l1.4-0.4c1.3,2.8,2.7,5.5,3.9,8.3c2.2,5.4,6.1,9.8,11.2,12.6c3.8,2.2,8.5,1.5,11.5-1.6c3.1-3.2,4-7.1,1.2-11.1
	c-2.5-3.5-6.1-6.3-9.4-9.1c-1.3-1.1-3.4-1.4-4.8-2.4c-1.4-0.9-3.5-2.3-3.5-3.5c-0.1-1.2,1.8-3,3.2-3.7c3.3-1.8,7-3.1,10.4-4.7
	c2-0.8,3.9-1.9,5.7-3.1c3.8-2.8,5.6-6.8,4.2-11.4c-1.7-5-6.3-8.4-11.6-8.5c-3.7,0-6.6,2-8.6,5.4c-2.4,4-4.6,8.2-7,12.2
	c-1.1,1.8-2.4,3.5-3.9,5c-0.4,0.3-0.9,0.5-1.5,0.6c-0.2,0-0.4,0.1-0.6,0c-0.3,0-0.7-0.1-1-0.2c-0.6-0.4-0.9-2-0.7-3
	c0.4-2.4,1.7-4.7,1.7-7c0-4.7,0.1-9.6-1.1-14.1C43,2.1,38.8,0,34.5,0"/>
</svg>
