<svg xmlns="http://www.w3.org/2000/svg" width="101.09" height="134.562" viewBox="0 0 101.09 134.562">
  <defs>
    <style>
      .cls-1 {
        fill: #0084ff;
        fill-rule: evenodd;
        opacity: 0.75;
      }
    </style>
  </defs>
  <path id="flower_copy" data-name="flower copy" class="cls-1" d="M1456.51,384.176a6.032,6.032,0,0,0,5.26-2.9,12.163,12.163,0,0,0,1.6-4.973,12.018,12.018,0,0,0-.66-5.182c-2.27-4.644-6.3-8.529-9.75-12.649-4.7-5.62-7.08-11.583-5.28-19.136,1.37-5.548,3.67-9.632,9.79-10.337a21.374,21.374,0,0,1,2.43-.144c5.63,0,10.2,2.462,12.64,7.9,1.69,3.733,2,8.1,3.01,12.622-1.44,6.586-2.98,13.227-4.4,20.1-0.96,4.626-2.53,10.607,3.3,12a9.852,9.852,0,0,0,2.19.23,18.03,18.03,0,0,0,10.87-4.061c4.05-3.523,6.29-9.107,9.18-13.9,3.36-5.547,6.2-11.438,9.96-16.7,3.15-4.411,6.7-6.573,10.54-6.572,3.39,0,7.01,1.692,10.75,5.018,6.89,6.107,7.32,13.986.33,20.31-3.38,3.036-7.89,4.934-12.05,7.03-6.41,3.2-13.37,5.511-19.35,9.342-9.43,6.017-8.7,13.5,1.25,18.919,3.61,1.916,7.71,2.91,10.84,5.313a71.988,71.988,0,0,1,13.38,12.758,10.591,10.591,0,0,1-1.31,15.179,11.634,11.634,0,0,1-8.12,3.473,15.32,15.32,0,0,1-7.42-2.19c-9.9-5.512-14.54-14.908-18.79-24.63-1.15-2.656-1.95-5.674-3.9-7.716-1.8-1.882-4.84-4.116-7-4.116a2.722,2.722,0,0,0-.53.05c-2.17.434-4.79,4.03-5.28,6.6-1.28,6.758-.59,13.986-2.4,20.527A78,78,0,0,1,1458,447.45c-3.2,4.887-7.18,7.011-11.9,7.011a22.764,22.764,0,0,1-7.61-1.5c-9.02-3.252-11.38-7.751-9.4-17.094,2.31-10.806,10.21-16.949,18.77-22.515,5.1-3.289,10.5-6.126,15.57-9.451,4.12-2.692,6.51-6.722,4.12-11.42a7.608,7.608,0,0,0-7.23-4.568,15.226,15.226,0,0,0-4.35.719c-10.55,3.126-21.17,6.072-31.79,9.035a17.909,17.909,0,0,1-4.83.647c-6.81,0-13.63-3.593-15.93-8.8-2.85-6.451,1.27-18.793,8.49-21.575a21.331,21.331,0,0,1,14.22.2c7.35,2.874,14.04,7.482,20.96,11.439,1.35,0.777,2.54,1.843,3.84,2.728a10.442,10.442,0,0,0,5.58,1.869m3.21-59.959c-0.61,0-1.21.022-1.81,0.067-6.92.506-11.91,3.957-14.15,10.625-3.14,9.379-1.91,18.052,4.64,25.75a104.4,104.4,0,0,1,9.04,10.842c1.15,1.789.5,4.717,0.66,7.12a25.329,25.329,0,0,1-6.55-1.807c-3.09-1.789-5.49-5-8.73-6.234-8.09-3.126-16.33-6.812-24.8-7.77a16.152,16.152,0,0,0-1.9-.116c-8.3,0-12.6,6.964-15.71,14.572a17.3,17.3,0,0,0,14.99,24.34c1.19,0.067,2.39.1,3.59,0.1a64.394,64.394,0,0,0,13.77-1.491c8.09-1.843,15.9-5,23.95-7.083a3.176,3.176,0,0,1,.79-0.1c1.75,0,3.82,1.225,5.72,1.757-0.98,1.807-1.52,4.228-3.04,5.3-4.97,3.487-10.33,6.378-15.43,9.685-8.81,5.71-16.98,12.053-19.65,22.895-1.63,6.6-2.89,13.3,2.31,19.064a23.468,23.468,0,0,0,33.73-.2c8.65-9.9,11.94-21.792,12.77-34.568,0.29-4.283.87-8.547,1.3-12.812l2.5-.614c2.31,4.861,4.78,9.649,6.88,14.6a43.871,43.871,0,0,0,19.76,22.154,16.43,16.43,0,0,0,20.34-2.874c5.53-5.619,7.14-12.576,2.17-19.515-4.39-6.144-10.69-11.041-16.55-16.047-2.29-1.969-5.92-2.511-8.42-4.174s-6.1-4.029-6.25-6.126,3.09-5.222,5.57-6.559c5.91-3.2,12.3-5.493,18.41-8.348a57.225,57.225,0,0,0,9.99-5.422c6.73-4.987,9.9-11.944,7.49-20.039a21.793,21.793,0,0,0-20.43-14.908c-6.56,0-11.59,3.582-15.12,9.487-4.24,7.1-8.07,14.474-12.37,21.557a44.21,44.21,0,0,1-6.96,8.891,5.989,5.989,0,0,1-2.59,1.128,6.175,6.175,0,0,1-1.03.088,6.014,6.014,0,0,1-1.8-.277c-1.1-.614-1.59-3.5-1.3-5.222,0.71-4.174,2.91-8.24,2.91-12.342,0.02-8.348.14-16.968-1.9-24.937-1.76-6.82-9.11-10.439-16.79-10.439" transform="translate(-1398.91 -324.219)"/>
</svg>
