<svg xmlns="http://www.w3.org/2000/svg" width="193" height="219" viewBox="0 0 193 219">
  <defs>
    <style>
      .cls-1 {
        fill: #fdcccc;
        fill-rule: evenodd;
        opacity: 0.9;
      }
    </style>
  </defs>
  <path id="flower" class="cls-1" d="M154.047,173.024a8.749,8.749,0,0,1-1.972-8.5,17.554,17.554,0,0,1,10.089-10.864c7.244-2.044,15.369-1.457,23.186-1.723,10.654-.373,19.432-3.579,25.859-12.857,4.676-6.864,6.87-13.3,1.68-20.608a30.984,30.984,0,0,0-2.207-2.769c-5.473-6.085-12.577-8.632-20.836-6-5.691,1.789-10.718,5.686-16.6,8.987-5.733,7.948-11.437,16.046-17.5,24.254-4.081,5.522-9.034,13.021-16.213,8.064a14.317,14.317,0,0,1-2.374-2.141,26.2,26.2,0,0,1-6.171-15.692c-0.116-7.792,3.756-15.628,6.134-23.4,2.744-9.013,6.369-17.791,8.413-26.953,1.713-7.686.6-13.625-3.129-17.77-3.3-3.668-8.644-5.932-15.89-6.758-13.307-1.517-22.264,5.656-22.321,19.346,0,6.6,2.33,13.318,4.1,19.842,2.769,10.034,7.023,19.795,8.685,29.974,2.647,16.028-6.16,22.5-21.708,17-5.587-2.048-10.65-5.517-16.291-6.564a105.41,105.41,0,0,0-26.833-2.1,15.359,15.359,0,0,0-15.163,16.146,16.855,16.855,0,0,0,4.124,12.138,22.32,22.32,0,0,0,9.588,5.9c15.594,5.355,30.286,1.261,44.945-3.579,4-1.326,8.043-3.394,12.152-3.265,3.786,0.118,9.162,1.237,11.264,3.575a3.9,3.9,0,0,1,.463.624c1.637,2.764.288,9.083-2.018,12.1-6.075,7.94-14.573,14.208-19.9,22.5a112.732,112.732,0,0,0-13.541,30.837c-2.187,8.2-.621,14.553,3.973,19.662a33.17,33.17,0,0,0,9.021,6.772c12.286,6.59,19.461,4.784,27.65-6.425,9.459-12.979,8.442-27.47,6.148-42.123-1.389-8.7-3.565-17.286-4.9-26-1.086-7.063.961-13.549,8.369-15.528,5.133-1.371,9.011.089,11.982,3.392a22.12,22.12,0,0,1,3.444,5.392c6.868,14.435,14,28.773,21.116,43.129a25.99,25.99,0,0,0,4,5.85c6.616,7.357,17.134,11.24,25.009,8.683,9.763-3.172,19.131-19.593,15.122-30.1a31,31,0,0,0-14.035-15.174c-10.26-5.161-21.749-7.917-32.761-11.558-2.159-.711-4.473-0.966-6.7-1.513a15.2,15.2,0,0,1-7.449-4.218m61.843-61.613q0.877,0.976,1.688,2.022c6.177,7.969,7.284,16.706,2.238,25.594-7.1,12.493-17.7,19.577-32.409,19.954a152.1,152.1,0,0,0-20.526.752c-3.062.485-5.6,4.027-8.363,6.182a36.987,36.987,0,0,0,8.332,5.336c4.94,1.6,10.76,1.081,15.235,3.385,11.253,5.716,23.254,11.045,32.527,19.274a23.267,23.267,0,0,1,1.972,1.941c8.065,8.969,4.7,20.375-.512,31.118a25.225,25.225,0,0,1-40.944,7.4q-1.852-1.842-3.595-3.78a93.505,93.505,0,0,1-11.773-16.335c-5.87-10.535-10.03-22.038-15.61-32.762a4.564,4.564,0,0,0-.662-0.941c-1.7-1.9-5.043-2.945-7.46-4.476-1.01,2.807-3.106,5.741-2.786,8.415,1.05,8.752,3.133,17.355,4.5,26.069,2.383,15.067,3.448,30.044-5.7,43.449-5.565,8.154-11.6,16.023-22.9,15.989-9.216-.026-17.862-4.532-23.958-11.311C79,251.809,75.445,242.6,76.577,233.347c2.317-18.957,12-34.042,25.036-47.33,4.358-4.466,8.417-9.226,12.615-13.831l-1.757-3.29c-7.514,2.214-15.108,4.183-22.508,6.72a64.043,64.043,0,0,1-43.211.123,23.869,23.869,0,0,1-16.66-24.773c0.716-11.425,6.689-19.911,19.036-21.269,10.922-1.215,22.356.851,33.468,2.323,4.364,0.57,8.481,3.969,12.7,5.051s10.3,2.692,12.712.816,2.655-8.4,1.7-12.376c-2.277-9.487-6.007-18.625-8.849-27.994a82.939,82.939,0,0,1-3.837-16.056c-1.147-12.12,3.317-22.284,14.422-27.539a31.757,31.757,0,0,1,36.013,7.63c6.375,7.089,7.384,16,4.418,25.542-3.567,11.476-7.832,22.765-11.326,34.282a64.007,64.007,0,0,0-2.871,16.14,8.709,8.709,0,0,0,4.249,6.77c1.737,0.595,5.344-1.682,6.922-3.659,3.838-4.81,6.1-11.135,10.544-15.113,9.027-8.116,18.242-16.612,28.859-22.134,9.1-4.714,20.165-.277,27.636,8.031" transform="translate(-30 -51)"/>
</svg>
