<svg xmlns="http://www.w3.org/2000/svg" width="112.6" height="109" viewBox="0 0 112.6 109">
  <defs>
    <style>
      .cls-1 {
        fill: #ffea00;
        fill-rule: evenodd;
        opacity: 0.75;
      }
    </style>
  </defs>
  <path id="flower" class="cls-1" d="M1386.77,211.568a4.876,4.876,0,0,0,4.26-2.348,9.792,9.792,0,0,0,.76-8.226c-1.84-3.762-5.1-6.909-7.9-10.246-3.8-4.552-5.73-9.382-4.27-15.5,1.11-4.494,2.97-7.8,7.93-8.373a17.3,17.3,0,0,1,1.97-.117c4.56,0,8.26,1.994,10.23,6.4,1.38,3.023,1.63,6.557,2.44,10.224-1.17,5.335-2.41,10.714-3.56,16.283-0.78,3.747-2.05,8.592,2.68,9.719a7.981,7.981,0,0,0,1.77.186,14.613,14.613,0,0,0,8.8-3.289c3.28-2.854,5.1-7.377,7.44-11.256,2.72-4.493,5.02-9.265,8.06-13.524,2.55-3.573,5.43-5.324,8.54-5.324,2.75,0,5.68,1.371,8.71,4.065,5.58,4.947,5.93,11.329.27,16.452-2.74,2.459-6.4,4-9.76,5.693-5.2,2.591-10.83,4.465-15.68,7.568-7.63,4.874-7.05,10.933,1.01,15.324,2.93,1.552,6.25,2.357,8.78,4.3a58.374,58.374,0,0,1,10.85,10.333,8.561,8.561,0,0,1,2.08,6.375,8.55,8.55,0,0,1-3.15,5.92,9.409,9.409,0,0,1-6.57,2.813,12.419,12.419,0,0,1-6.02-1.774c-8.01-4.464-11.78-12.075-15.21-19.95-0.94-2.151-1.58-4.6-3.16-6.25-1.46-1.524-3.92-3.334-5.68-3.334a2.319,2.319,0,0,0-.43.041c-1.75.351-3.87,3.264-4.27,5.343-1.04,5.474-.48,11.329-1.95,16.627a62.936,62.936,0,0,1-7.77,17.1c-2.58,3.958-5.81,5.678-9.63,5.678a18.464,18.464,0,0,1-6.17-1.214c-7.3-2.634-9.22-6.279-7.61-13.846,1.88-8.753,8.27-13.73,15.21-18.238,4.12-2.664,8.5-4.962,12.61-7.655,3.34-2.181,5.27-5.445,3.34-9.25a6.174,6.174,0,0,0-5.87-3.7,12.327,12.327,0,0,0-3.51.582c-8.55,2.532-17.15,4.918-25.76,7.318a14.458,14.458,0,0,1-3.91.524c-5.51,0-11.04-2.91-12.9-7.125-2.31-5.225,1.02-15.222,6.88-17.476a17.26,17.26,0,0,1,11.51.161c5.96,2.327,11.37,6.059,16.98,9.265,1.09,0.629,2.06,1.493,3.11,2.21a8.488,8.488,0,0,0,4.52,1.514m2.6-48.567q-0.735,0-1.47.054c-5.6.41-9.64,3.206-11.46,8.607-2.54,7.6-1.55,14.622,3.76,20.857a84.118,84.118,0,0,1,7.32,8.782c0.94,1.449.41,3.82,0.54,5.767a20.548,20.548,0,0,1-5.31-1.464c-2.5-1.449-4.45-4.054-7.07-5.049-6.55-2.533-13.22-5.518-20.09-6.294a13,13,0,0,0-1.54-.094c-6.72,0-10.2,5.641-12.72,11.8a14.018,14.018,0,0,0,12.14,19.716q1.455,0.081,2.91.081a52.046,52.046,0,0,0,11.15-1.208c6.56-1.493,12.88-4.054,19.41-5.737a2.45,2.45,0,0,1,.63-0.077c1.42,0,3.1.992,4.63,1.423-0.79,1.464-1.23,3.425-2.45,4.289-4.03,2.825-8.37,5.166-12.5,7.845-7.14,4.625-13.76,9.763-15.92,18.545-1.32,5.342-2.34,10.773,1.87,15.442a19.009,19.009,0,0,0,27.32-.161c7.01-8.021,9.67-17.652,10.35-28,0.23-3.469.7-6.924,1.05-10.378l2.02-.5c1.87,3.938,3.88,7.816,5.57,11.827a35.554,35.554,0,0,0,16.01,17.945A13.319,13.319,0,0,0,1442,254.7c4.48-4.552,5.78-10.187,1.75-15.807-3.55-4.977-8.66-8.944-13.4-13-1.86-1.595-4.8-2.034-6.82-3.381s-4.94-3.264-5.06-4.962,2.5-4.23,4.51-5.313c4.78-2.591,9.96-4.45,14.91-6.762a46.823,46.823,0,0,0,8.09-4.391c5.46-4.04,8.02-9.675,6.07-16.233a17.657,17.657,0,0,0-16.55-12.075c-5.31,0-9.39,2.9-12.25,7.684-3.43,5.753-6.54,11.724-10.02,17.462a35.941,35.941,0,0,1-5.63,7.2,4.859,4.859,0,0,1-2.11.914,4.761,4.761,0,0,1-.83.071,4.832,4.832,0,0,1-1.45-.223c-0.9-.5-1.29-2.84-1.06-4.231,0.57-3.381,2.36-6.674,2.36-10,0.01-6.763.12-13.744-1.54-20.2-1.42-5.525-7.38-8.456-13.6-8.456" transform="translate(-1340.12 -163)"/>
</svg>
