<svg xmlns="http://www.w3.org/2000/svg" viewBox="0 0 370.8 249.07"><defs><style>.cls-1{fill:#fff;}.cls-2{fill:#b70202;}</style></defs><g id="Layer_2" data-name="Layer 2"><g id="Layer_1-2" data-name="Layer 1"><path class="cls-1" d="M19.11,108.72a45.8,45.8,0,0,0,12.09-1.44q0-5.34-.29-14.27-.29-10.94-.29-18.29l.58,1.87.43,1.73a14.67,14.67,0,0,0,.51,2.09,17.78,17.78,0,0,0,1.22,3.24q3.73,8.5,6.77,14.19A57.7,57.7,0,0,0,47,108.14c2.88,0,4.84,0,5.9.14,3.26.2,5.8.29,7.63.29a45.61,45.61,0,0,0,7.05-.54v1q3.16-.28,6.62-.28c2.11,0,3.65,0,4.61.14a52.72,52.72,0,0,0,6.19-.07,38.56,38.56,0,0,0,6.19-1.23q0-20.88-.57-38.6-.15-5.32,2.16-7.49c1.53-1.44,3.79-2.16,6.76-2.16a50,50,0,0,1,6.19.43l8.35,2,.72.24a46.49,46.49,0,0,0-.58,7.39,65.08,65.08,0,0,0,2.6,17.79,40.26,40.26,0,0,0,7.84,15.34,16.28,16.28,0,0,0,12.89,6.2,27.71,27.71,0,0,0,8.35-1.37,33.11,33.11,0,0,0,7.91-3.68v1c0,1.92,1.11,3.22,3.31,3.89h18.29c1.63-.29,2.64-.84,3-1.65a8.64,8.64,0,0,0,.58-3.53V102q.42-8.94.43-17.43l-.15-8.65V67.23q-.14-5-.14-15.13,0-7.49.14-11.23a26.43,26.43,0,0,0-.21-3.17,21.59,21.59,0,0,1-.22-2.45H177L168,34.82q-1.16-.15-5.4-.51c-2.83-.23-5.11-.36-6.84-.36a3.81,3.81,0,0,0-2,.29,2,2,0,0,0-.14,1.73,8.12,8.12,0,0,1,.28,1.87c-.67-.67-2.3-1.24-4.89-1.73a46.79,46.79,0,0,0-8.35-.72A22.87,22.87,0,0,0,127.22,40a29.94,29.94,0,0,0-9.3,11.75l-.06-8.14.15-7.5c0-.47-2.35-.72-7.06-.72a54.2,54.2,0,0,0-15.69,1.88,13.58,13.58,0,0,0-2.09.79,8.32,8.32,0,0,1-1.79.65v-.15l-.15-3.45c0-.29-.82-.44-2.45-.44a54.12,54.12,0,0,0-6.76.44,63.33,63.33,0,0,1-7.34.43,60.67,60.67,0,0,1-7.2-.58q-.3,13-.29,20,0,9.65.29,28.37.1,6.24.13,17.46L46,56A158.84,158.84,0,0,1,56.54,36.11l.86-1.44q5.48-9.5,8.49-15.48a68.34,68.34,0,0,0,4.76-12,72,72,0,0,0-13.82-.72L47.32,6.3a140.51,140.51,0,0,0-9.64,16.13A157.29,157.29,0,0,1,29.9,36.26V33.38q0-21.31-.14-26.8c-5,0-8.4,0-10.22-.14Q10.9,6.15,6.15,6.3q0,21.17-.43,38.46-.43,17-.43,34.14,0,15.84.57,28.38A58.94,58.94,0,0,0,19.11,108.72Zm118-43.94a11.59,11.59,0,0,1,3.75-6.12,10.94,10.94,0,0,1,7.48-2.52,6.75,6.75,0,0,1,3.82.79,4.06,4.06,0,0,1,1.29,3c.15,1.49.22,4.29.22,8.42v3.75a75.89,75.89,0,0,1-.36,8.64,8.73,8.73,0,0,1-1.8,4.61,5.68,5.68,0,0,1-4.61,1.73,9,9,0,0,1-7.77-4.25,18.44,18.44,0,0,1-2.88-10.59A27,27,0,0,1,137.15,64.78Zm48.37,43.5,10.22.29a62.16,62.16,0,0,0,8.93-.57,2.21,2.21,0,0,0,.72-1.59v-3.6a13,13,0,0,0,10.94,5.33,12.6,12.6,0,0,0,2.16-.14h-.14q10.78-1,16.41-6.92a29.59,29.59,0,0,0,7.48-14.19,111.62,111.62,0,0,0,2.31-20.24,51.26,51.26,0,0,0-3.31-19.08q-3.31-8.28-9.79-10.88a40.05,40.05,0,0,0-13.68-2,44.89,44.89,0,0,0-12.52,1.59l.14-8.5q0-5.48-.22-12T204.81,8V6.44c0-.29-1.24-.6-3.74-.94a62.8,62.8,0,0,0-8.2-.5,50.81,50.81,0,0,0-10.51,1V15.8q0,15.57-.58,39.76-.43,17.86-.43,34.57,0,12.54.14,18.15ZM205,57.87c.24-2,.79-3.36,1.66-4s2.39-1,4.6-1a11.93,11.93,0,0,1,7.85,2.45,11.17,11.17,0,0,1,3.67,7.21l.86.57-.72-.43q.87,2.31.87,8.07a25.69,25.69,0,0,1-3,12.75q-3,5.4-7.91,5.4c-3.56,0-5.81-1.61-6.77-4.83s-1.44-8.33-1.44-15.34A107.18,107.18,0,0,1,205,57.87Zm39.66,50.41h4l10.22.29a62.16,62.16,0,0,0,8.93-.57,2.21,2.21,0,0,0,.72-1.59v-3.6a13,13,0,0,0,10.94,5.33,12.6,12.6,0,0,0,2.16-.14h-.15q10.8-1,16.41-6.92a29.61,29.61,0,0,0,7.49-14.19,110.82,110.82,0,0,0,2.3-20.24,51.06,51.06,0,0,0-3.31-19.08q-3.31-8.28-9.79-10.88a40,40,0,0,0-13.67-2,45,45,0,0,0-12.53,1.59l.15-8.5q0-5.48-.22-12T268,8V6.44c0-.29-1.25-.6-3.74-.94a62.85,62.85,0,0,0-8.21-.5,50.88,50.88,0,0,0-10.51,1V15.8q0,15.57-.57,39.76-.43,17.86-.43,34.57Q244.55,102.67,244.69,108.28Zm23.54-50.41c.24-2,.79-3.36,1.65-4s2.4-1,4.61-1a11.88,11.88,0,0,1,7.84,2.45A11.18,11.18,0,0,1,286,62.48l.86.57-.72-.43c.58,1.54.86,4.23.86,8.07a25.69,25.69,0,0,1-3,12.75q-3,5.4-7.92,5.4c-3.55,0-5.81-1.61-6.76-4.83s-1.44-8.33-1.44-15.34A107.18,107.18,0,0,1,268.23,57.87ZM370.8,35.11l-10.51-.29-7.63.14q-2.46.15-7.06.15-1.16-.44-2.23,6.12t-2.52,19.23c-.57,4.61-1.13,8.93-1.65,13s-1,6.44-1.51,7.21q-1.45-5.19-4.32-20.31-.87-5.48-1.44-8.22a155.4,155.4,0,0,0-3.17-16.71h-1.87a44.84,44.84,0,0,0-6.19-.28l-9.93.14a48.38,48.38,0,0,1-7.92-.72,67.09,67.09,0,0,0,2.59,9.22v-.14q10.5,38.46,14.54,60.78l.14,1.88q0,7.33-7.63,7.34c-1.92,0-3.41,0-4.46-.14s-3.31-.14-6.77-.14a42.91,42.91,0,0,0-.86,8.64,38.19,38.19,0,0,0,1.73,11.81q3.45.28,6.76.29,17.72,0,27.86-7.78a45.16,45.16,0,0,0,14.68-18.73A191.53,191.53,0,0,0,360.14,79q3.32-12.81,2.88-11.23,1.44-5.48,3.17-13.26Q369.07,41.88,370.8,35.11ZM59.78,127q-13-7.86-31.6-7.85A84,84,0,0,0,5,122.3q.44,10.67.43,34.14v17.43q0,34.57.58,48.55a112.36,112.36,0,0,0,13.24.72q9.65,0,13.53-1.15l1.59-.15V192.6c0-1,0-2,.07-3.17a28.59,28.59,0,0,0-.07-3.46,7,7,0,0,0,1.73.08c.47-.05.86-.08,1.15-.08A36.74,36.74,0,0,0,54,182a37.91,37.91,0,0,0,13.24-10.87A30.52,30.52,0,0,0,73.52,156a34.43,34.43,0,0,0,.15-3.89V152Q72.8,134.84,59.78,127Zm-12.6,32.77a7.15,7.15,0,0,1-3.67,2.88,16.36,16.36,0,0,1-5.62.86H31.63a20.54,20.54,0,0,1-.93-5q-.22-2.81-.22-7.13v-1.29q0-5.48-.14-7.78c.95,0,2.37,0,4.24.07a31.26,31.26,0,0,1,5.55.65,11,11,0,0,1,5,2.59l1.16,1.3a12.4,12.4,0,0,1,2.3,7.2A10.88,10.88,0,0,1,47.18,159.76ZM139,182.23q-.15-5-.15-15.13,0-7.48.15-11.23a26.57,26.57,0,0,0-.22-3.17,24.29,24.29,0,0,1-.22-2.45h-1.87l-9.07-.43q-1.16-.15-5.4-.51c-2.83-.23-5.11-.36-6.83-.36a3.84,3.84,0,0,0-2,.29,2,2,0,0,0-.14,1.73,8.12,8.12,0,0,1,.28,1.87c-.67-.67-2.3-1.24-4.89-1.73a46.79,46.79,0,0,0-8.35-.72A22.89,22.89,0,0,0,86.91,155a30,30,0,0,0-9.5,12.18A41.62,41.62,0,0,0,74,184.39a65.06,65.06,0,0,0,2.59,17.79,40.26,40.26,0,0,0,7.84,15.34,16.28,16.28,0,0,0,12.89,6.2,27.71,27.71,0,0,0,8.35-1.37,32.93,32.93,0,0,0,7.91-3.68v1q0,2.88,3.32,3.89h18.28c1.63-.29,2.64-.84,3-1.65a8.64,8.64,0,0,0,.58-3.53V217q.44-8.94.43-17.43l-.14-8.65Zm-25.63,4.9a75.89,75.89,0,0,1-.36,8.64,8.73,8.73,0,0,1-1.8,4.61,5.68,5.68,0,0,1-4.61,1.73,9,9,0,0,1-7.77-4.25A18.44,18.44,0,0,1,96,187.27a26.57,26.57,0,0,1,.87-7.49,11.51,11.51,0,0,1,3.74-6.12,10.94,10.94,0,0,1,7.48-2.52,6.73,6.73,0,0,1,3.82.79,4.06,4.06,0,0,1,1.29,3c.15,1.49.22,4.29.22,8.42ZM301,150q-2.46.15-7.06.15-1.16-.44-2.23,6.12t-2.52,19.23c-.57,4.61-1.13,8.93-1.65,13s-1,6.44-1.51,7.21q-1.45-5.19-4.32-20.31-.87-5.48-1.44-8.22a158,158,0,0,0-3.17-16.71h-1.87a44.84,44.84,0,0,0-6.19-.28l-9.94.14a48.36,48.36,0,0,1-7.91-.72c0,.15.06.29.1.43H250c-.49,0-1.08,0-1.8-.07a10.32,10.32,0,0,0-2.09.07l-2,.15c-3.84.28-8.25.53-13.24.72l-.14-1.44V123.17a37.76,37.76,0,0,1-5.62.43c-1.25,0-3-.09-5.33-.29l-1-.14c-2.12-.19-3.94-.29-5.47-.29s-3.36.1-5.47.29l-.15,27.51c-4.12,0-7.45,0-10-.13,0-.2,0-.38,0-.59H194.3c-.48,0-1.07,0-1.79-.07a10.32,10.32,0,0,0-2.09.07l-2,.15c-3.84.28-8.25.53-13.24.72l-.15-1.44V123.17a37.53,37.53,0,0,1-5.61.43c-1.25,0-3-.09-5.33-.29l-1-.14c-2.12-.19-3.94-.29-5.47-.29s-3.37.1-5.48.29L152,150.68c-4.22,0-7.63,0-10.22-.14l-.43,19h4.32c.76,0,1.65,0,2.66.08a28.32,28.32,0,0,0,3.38-.08v7.21q0,9.93.43,17.64a144.46,144.46,0,0,0,1.73,15.49q3.17,7.49,13,10.58a76.61,76.61,0,0,0,23,3.1c2.59,0,5.14-.09,7.63-.29a25.23,25.23,0,0,0,1.3-8.35,76.67,76.67,0,0,0-.87-10.8v.14l-.14-.58V202.4l-3,.14a51.32,51.32,0,0,1-11.66-1.3q-5.62-1.29-7.78-4,.15-5.19.15-28.09h21.6v.43h4.32c.77,0,1.65,0,2.66.08a28.27,28.27,0,0,0,3.38-.08v7.21q0,9.93.44,17.64a141.92,141.92,0,0,0,1.72,15.49q3.16,7.49,13,10.58a76.61,76.61,0,0,0,23,3.1c2.59,0,5.14-.09,7.63-.29a25.23,25.23,0,0,0,1.3-8.35,78.05,78.05,0,0,0-.86-10.8v.14l-.15-.58V202.4l-3,.14a51.32,51.32,0,0,1-11.66-1.3q-5.62-1.29-7.78-4,.15-5.19.15-28.09h22.46a28.51,28.51,0,0,1-.29-3.31l.14-3.17.15-1.59c.07-.91.12-1.69.17-2.34q10.48,38.39,14.51,60.68l.14,1.88q0,7.33-7.63,7.34c-1.92,0-3.41-.05-4.46-.14s-3.31-.14-6.77-.14a42.91,42.91,0,0,0-.86,8.64,38.19,38.19,0,0,0,1.73,11.81q3.45.28,6.76.29,17.71,0,27.86-7.78a45.16,45.16,0,0,0,14.68-18.73A191.53,191.53,0,0,0,308.46,194q3.32-12.81,2.88-11.23,1.44-5.48,3.17-13.26,2.88-12.68,4.61-19.44l-10.51-.29Z"/><path class="cls-2" d="M14.11,103.72a45.8,45.8,0,0,0,12.09-1.44q0-5.34-.29-14.27-.29-10.94-.29-18.29l.58,1.87.43,1.73a14.67,14.67,0,0,0,.51,2.09,17.78,17.78,0,0,0,1.22,3.24q3.73,8.5,6.77,14.19A57.7,57.7,0,0,0,42,103.14c2.88,0,4.84,0,5.9.14,3.26.2,5.8.29,7.63.29a45.61,45.61,0,0,0,7-.54v1q3.17-.28,6.62-.28c2.11,0,3.65,0,4.61.14a52.72,52.72,0,0,0,6.19-.07,38.56,38.56,0,0,0,6.19-1.23q0-20.88-.57-38.6-.15-5.33,2.16-7.49c1.53-1.44,3.79-2.16,6.76-2.16a50,50,0,0,1,6.19.43l8.35,2,.72.24a46.49,46.49,0,0,0-.58,7.39,65.08,65.08,0,0,0,2.6,17.79,40.26,40.26,0,0,0,7.84,15.34,16.28,16.28,0,0,0,12.89,6.2,27.71,27.71,0,0,0,8.35-1.37,33.11,33.11,0,0,0,7.91-3.68v1c0,1.92,1.11,3.22,3.31,3.89h18.29c1.63-.29,2.64-.84,3-1.65a8.64,8.64,0,0,0,.58-3.53V97q.42-8.94.43-17.43l-.15-8.65V62.23q-.14-5-.14-15.13,0-7.49.14-11.23a26.43,26.43,0,0,0-.21-3.17,21.59,21.59,0,0,1-.22-2.45H172L163,29.82q-1.16-.15-5.4-.51c-2.83-.23-5.11-.36-6.84-.36a3.81,3.81,0,0,0-2,.29,2,2,0,0,0-.14,1.73,8.12,8.12,0,0,1,.28,1.87c-.67-.67-2.3-1.24-4.89-1.73a46.79,46.79,0,0,0-8.35-.72A22.87,22.87,0,0,0,122.22,35a29.94,29.94,0,0,0-9.3,11.75l-.06-8.14.15-7.5c0-.47-2.35-.72-7.06-.72a54.2,54.2,0,0,0-15.69,1.88,13.58,13.58,0,0,0-2.09.79,8.32,8.32,0,0,1-1.79.65v-.15l-.15-3.45c0-.29-.82-.44-2.45-.44a54.12,54.12,0,0,0-6.76.44,63.33,63.33,0,0,1-7.34.43,60.67,60.67,0,0,1-7.2-.58q-.3,13-.29,20,0,9.65.29,28.37.1,6.24.13,17.46L41,51A158.84,158.84,0,0,1,51.54,31.11l.86-1.44q5.48-9.5,8.49-15.48a68.34,68.34,0,0,0,4.76-12,72,72,0,0,0-13.82-.72L42.32,1.3a140.51,140.51,0,0,0-9.64,16.13A157.29,157.29,0,0,1,24.9,31.26V28.38q0-21.31-.14-26.8c-5,0-8.4,0-10.22-.14Q5.9,1.16,1.15,1.3q0,21.17-.43,38.46Q.29,56.76.29,73.9q0,15.84.57,28.38A58.94,58.94,0,0,0,14.11,103.72Zm118-43.94a11.59,11.59,0,0,1,3.75-6.12,10.94,10.94,0,0,1,7.48-2.52,6.75,6.75,0,0,1,3.82.79,4.06,4.06,0,0,1,1.29,3c.15,1.49.22,4.29.22,8.42v3.75a75.89,75.89,0,0,1-.36,8.64,8.73,8.73,0,0,1-1.8,4.61,5.68,5.68,0,0,1-4.61,1.73,9,9,0,0,1-7.77-4.25,18.44,18.44,0,0,1-2.88-10.59A27,27,0,0,1,132.15,59.78Zm48.37,43.5,10.22.29a62.16,62.16,0,0,0,8.93-.57,2.21,2.21,0,0,0,.72-1.59v-3.6a13,13,0,0,0,10.94,5.33,12.6,12.6,0,0,0,2.16-.14h-.14q10.78-1,16.41-6.92a29.59,29.59,0,0,0,7.48-14.19,111.62,111.62,0,0,0,2.31-20.24,51.26,51.26,0,0,0-3.31-19.08q-3.31-8.28-9.79-10.88a40.05,40.05,0,0,0-13.68-2,44.89,44.89,0,0,0-12.52,1.59l.14-8.5q0-5.48-.22-12T199.81,3V1.44c0-.29-1.24-.6-3.74-.94a62.8,62.8,0,0,0-8.2-.5,50.81,50.81,0,0,0-10.51,1V10.8q0,15.57-.58,39.76-.43,17.86-.43,34.57,0,12.54.14,18.15ZM200,52.87c.24-2,.79-3.36,1.66-4s2.39-1,4.6-1a11.93,11.93,0,0,1,7.85,2.45,11.17,11.17,0,0,1,3.67,7.21l.86.57-.72-.43q.87,2.31.87,8.07a25.69,25.69,0,0,1-3,12.75q-3,5.4-7.91,5.4c-3.56,0-5.81-1.61-6.77-4.83s-1.44-8.33-1.44-15.34A107.18,107.18,0,0,1,200,52.87Zm39.66,50.41h4l10.22.29a62.16,62.16,0,0,0,8.93-.57,2.21,2.21,0,0,0,.72-1.59v-3.6a13,13,0,0,0,10.94,5.33,12.6,12.6,0,0,0,2.16-.14h-.15q10.8-1,16.41-6.92a29.61,29.61,0,0,0,7.49-14.19,110.82,110.82,0,0,0,2.3-20.24,51.06,51.06,0,0,0-3.31-19.08q-3.31-8.28-9.79-10.88a40,40,0,0,0-13.67-2,45,45,0,0,0-12.53,1.59l.15-8.5q0-5.48-.22-12T263,3V1.44c0-.29-1.25-.6-3.74-.94a62.85,62.85,0,0,0-8.21-.5,50.88,50.88,0,0,0-10.51,1V10.8q0,15.57-.57,39.76-.43,17.86-.43,34.57Q239.55,97.67,239.69,103.28Zm23.54-50.41c.24-2,.79-3.36,1.65-4s2.4-1,4.61-1a11.88,11.88,0,0,1,7.84,2.45A11.18,11.18,0,0,1,281,57.48l.86.57-.72-.43c.58,1.54.86,4.23.86,8.07a25.69,25.69,0,0,1-3,12.75q-3,5.4-7.92,5.4c-3.55,0-5.81-1.61-6.76-4.83s-1.44-8.33-1.44-15.34A107.18,107.18,0,0,1,263.23,52.87ZM365.8,30.11l-10.51-.29-7.63.14q-2.46.15-7.06.15-1.16-.43-2.23,6.12t-2.52,19.23c-.57,4.61-1.13,8.93-1.65,13s-1,6.44-1.51,7.21q-1.45-5.19-4.32-20.31-.87-5.48-1.44-8.22a155.4,155.4,0,0,0-3.17-16.71h-1.87a44.84,44.84,0,0,0-6.19-.28l-9.93.14a48.38,48.38,0,0,1-7.92-.72,67.09,67.09,0,0,0,2.59,9.22v-.14Q310.94,77.07,315,99.39l.14,1.88q0,7.33-7.63,7.34c-1.92,0-3.41,0-4.46-.14s-3.31-.14-6.77-.14a42.91,42.91,0,0,0-.86,8.64,38.19,38.19,0,0,0,1.73,11.81q3.45.28,6.76.29,17.72,0,27.86-7.78a45.16,45.16,0,0,0,14.68-18.73A191.53,191.53,0,0,0,355.14,74q3.32-12.81,2.88-11.23,1.44-5.48,3.17-13.26Q364.07,36.88,365.8,30.11ZM54.78,122q-13-7.86-31.6-7.85A84,84,0,0,0,0,117.3Q.43,128,.43,151.44v17.43q0,34.57.58,48.55a112.36,112.36,0,0,0,13.24.72q9.65,0,13.53-1.15l1.59-.15V187.6c0-1,0-2,.07-3.17a28.59,28.59,0,0,0-.07-3.46,7,7,0,0,0,1.73.08c.47-.05.86-.08,1.15-.08A36.74,36.74,0,0,0,49,177a37.91,37.91,0,0,0,13.24-10.87A30.52,30.52,0,0,0,68.52,151a34.43,34.43,0,0,0,.15-3.89V147Q67.8,129.84,54.78,122Zm-12.6,32.77a7.15,7.15,0,0,1-3.67,2.88,16.36,16.36,0,0,1-5.62.86H26.63a20.54,20.54,0,0,1-.93-5q-.22-2.81-.22-7.13v-1.29q0-5.48-.14-7.78c.95,0,2.37,0,4.24.07a31.26,31.26,0,0,1,5.55.65,11,11,0,0,1,5,2.59l1.16,1.3a12.4,12.4,0,0,1,2.3,7.2A10.88,10.88,0,0,1,42.18,154.76ZM134,177.23q-.15-5-.15-15.13,0-7.48.15-11.23a26.57,26.57,0,0,0-.22-3.17,24.29,24.29,0,0,1-.22-2.45h-1.87l-9.07-.43q-1.16-.15-5.4-.51c-2.83-.23-5.11-.36-6.83-.36a3.84,3.84,0,0,0-2,.29,2,2,0,0,0-.14,1.73,8.12,8.12,0,0,1,.28,1.87c-.67-.67-2.3-1.24-4.89-1.73a46.79,46.79,0,0,0-8.35-.72A22.89,22.89,0,0,0,81.91,150a30,30,0,0,0-9.5,12.18A41.62,41.62,0,0,0,69,179.39a65.06,65.06,0,0,0,2.59,17.79,40.26,40.26,0,0,0,7.84,15.34,16.28,16.28,0,0,0,12.89,6.2,27.71,27.71,0,0,0,8.35-1.37,32.93,32.93,0,0,0,7.91-3.68v1q0,2.88,3.32,3.89h18.28c1.63-.29,2.64-.84,3-1.65a8.64,8.64,0,0,0,.58-3.53V212q.44-8.94.43-17.43l-.14-8.65Zm-25.63,4.9a75.89,75.89,0,0,1-.36,8.64,8.73,8.73,0,0,1-1.8,4.61,5.68,5.68,0,0,1-4.61,1.73,9,9,0,0,1-7.77-4.25A18.44,18.44,0,0,1,91,182.27a26.57,26.57,0,0,1,.87-7.49,11.51,11.51,0,0,1,3.74-6.12,10.94,10.94,0,0,1,7.48-2.52,6.73,6.73,0,0,1,3.82.79,4.06,4.06,0,0,1,1.29,3c.15,1.49.22,4.29.22,8.42ZM296,145q-2.46.15-7.06.15-1.16-.44-2.23,6.12t-2.52,19.23c-.57,4.61-1.13,8.93-1.65,13s-1,6.44-1.51,7.21q-1.45-5.19-4.32-20.31-.87-5.48-1.44-8.22a158,158,0,0,0-3.17-16.71h-1.87a44.84,44.84,0,0,0-6.19-.28l-9.94.14a48.36,48.36,0,0,1-7.91-.72c0,.15.06.29.1.43H245c-.49,0-1.08,0-1.8-.07a10.32,10.32,0,0,0-2.09.07l-2,.15c-3.84.28-8.25.53-13.24.72l-.14-1.44V118.17a37.76,37.76,0,0,1-5.62.43c-1.25,0-3-.09-5.33-.29l-1-.14c-2.12-.19-3.94-.29-5.47-.29s-3.36.1-5.47.29l-.15,27.51c-4.12,0-7.45,0-10-.13,0-.2,0-.38,0-.59H189.3c-.48,0-1.07,0-1.79-.07a10.32,10.32,0,0,0-2.09.07l-2,.15c-3.84.28-8.25.53-13.24.72l-.15-1.44V118.17a37.53,37.53,0,0,1-5.61.43c-1.25,0-3-.09-5.33-.29l-1-.14c-2.12-.19-3.94-.29-5.47-.29s-3.37.1-5.48.29L147,145.68c-4.22,0-7.63,0-10.22-.14l-.43,19h4.32c.76,0,1.65,0,2.66.08a28.32,28.32,0,0,0,3.38-.08v7.21q0,9.93.43,17.64a144.46,144.46,0,0,0,1.73,15.49q3.17,7.49,13,10.58a76.61,76.61,0,0,0,23,3.1c2.59,0,5.14-.09,7.63-.29a25.23,25.23,0,0,0,1.3-8.35,76.67,76.67,0,0,0-.87-10.8v.14l-.14-.58V197.4l-3,.14a51.32,51.32,0,0,1-11.66-1.3q-5.62-1.29-7.78-4,.15-5.19.15-28.09h21.6v.43h4.32c.77,0,1.65,0,2.66.08a28.27,28.27,0,0,0,3.38-.08v7.21q0,9.93.44,17.64a141.92,141.92,0,0,0,1.72,15.49q3.16,7.49,13,10.58a76.61,76.61,0,0,0,23,3.1c2.59,0,5.14-.09,7.63-.29a25.23,25.23,0,0,0,1.3-8.35,78.05,78.05,0,0,0-.86-10.8v.14l-.15-.58V197.4l-3,.14a51.32,51.32,0,0,1-11.66-1.3q-5.62-1.29-7.78-4,.15-5.19.15-28.09h22.46a28.51,28.51,0,0,1-.29-3.31l.14-3.17.15-1.59c.07-.91.12-1.69.17-2.34q10.48,38.39,14.51,60.68l.14,1.88q0,7.33-7.63,7.34c-1.92,0-3.41-.05-4.46-.14s-3.31-.14-6.77-.14a42.91,42.91,0,0,0-.86,8.64,38.19,38.19,0,0,0,1.73,11.81q3.45.28,6.76.29,17.71,0,27.86-7.78a45.16,45.16,0,0,0,14.68-18.73A191.53,191.53,0,0,0,303.46,189q3.32-12.81,2.88-11.23,1.44-5.48,3.17-13.26,2.88-12.68,4.61-19.44l-10.51-.29Z"/></g></g></svg>