<svg xmlns="http://www.w3.org/2000/svg" viewBox="0 0 705.23 134.93"><defs><style>.cls-1{fill:#fff;}.cls-2{fill:#b70202;}</style></defs><g id="Layer_2" data-name="Layer 2"><g id="Layer_1-2" data-name="Layer 1"><path class="cls-1" d="M176.05,68.09q-.15-5-.15-15.12,0-7.48.15-11.24a26.71,26.71,0,0,0-.22-3.17,24.05,24.05,0,0,1-.22-2.45h-1.87l-9.07-.43c-.77-.09-2.57-.26-5.4-.5s-5.11-.36-6.83-.36a3.84,3.84,0,0,0-2,.29,2,2,0,0,0-.14,1.73,8.15,8.15,0,0,1,.29,1.87q-1-1-4.9-1.73a45.89,45.89,0,0,0-8.35-.72,22.82,22.82,0,0,0-13.39,4.61,29.78,29.78,0,0,0-9.29,11.75l-.06-8.15.14-7.49q0-.72-7-.72A54.32,54.32,0,0,0,92,38.13a15.91,15.91,0,0,0-2.08.79,7.86,7.86,0,0,1-1.8.65v-.14L87.94,36c0-.29-.81-.43-2.44-.43a54.11,54.11,0,0,0-6.77.43,61.19,61.19,0,0,1-7.34.43,62.45,62.45,0,0,1-7.2-.57q-.28,13-.29,20,0,9.65.29,28.38.11,6.24.13,17.46L42.74,56.86A158.14,158.14,0,0,1,53.25,37l.86-1.44q5.47-9.51,8.5-15.49A68.19,68.19,0,0,0,67.36,8,71.14,71.14,0,0,0,53.54,7.3L44,7.16a139,139,0,0,0-9.65,16.13,157,157,0,0,1-7.77,13.83V34.24q0-21.31-.15-26.79Q19,7.45,16.25,7.3,7.61,7,2.86,7.16q0,21.18-.43,38.46Q2,62.62,2,79.76q0,15.85.58,28.38a58.28,58.28,0,0,0,13.24,1.44,45.34,45.34,0,0,0,12.09-1.44q0-5.33-.29-14.26-.29-10.95-.28-18.3l.57,1.88.43,1.73a14.71,14.71,0,0,0,.51,2.08,17.61,17.61,0,0,0,1.22,3.25Q33.82,93,36.84,98.7A57.87,57.87,0,0,0,43.75,109c2.88,0,4.84,0,5.9.15,3.26.19,5.81.29,7.63.29a44.38,44.38,0,0,0,7-.55v1c2.11-.2,4.32-.29,6.63-.29,2.11,0,3.64,0,4.6.14a48.67,48.67,0,0,0,6.19-.07,37.11,37.11,0,0,0,6.19-1.22q0-20.9-.57-38.61-.15-5.32,2.16-7.49c1.53-1.44,3.79-2.16,6.76-2.16a51.87,51.87,0,0,1,6.19.43l8.35,2,.72.24a46.6,46.6,0,0,0-.57,7.39A65,65,0,0,0,113.57,88a40.45,40.45,0,0,0,7.84,15.35,16.29,16.29,0,0,0,12.89,6.19,27.71,27.71,0,0,0,8.35-1.37,33,33,0,0,0,7.92-3.67v1c0,1.92,1.1,3.21,3.31,3.89h18.28c1.63-.29,2.64-.85,3-1.66a8.61,8.61,0,0,0,.58-3.53v-1.44q.44-8.93.43-17.43l-.14-8.64ZM150.42,73a75.89,75.89,0,0,1-.36,8.64,8.69,8.69,0,0,1-1.8,4.61c-1,1.16-2.5,1.73-4.6,1.73a8.93,8.93,0,0,1-7.78-4.25A18.43,18.43,0,0,1,133,73.14a26.52,26.52,0,0,1,.87-7.49,11.54,11.54,0,0,1,3.74-6.13A10.94,10.94,0,0,1,145.09,57a6.81,6.81,0,0,1,3.82.79,4.1,4.1,0,0,1,1.3,3q.21,2.24.21,8.43ZM238,48.43q-3.31-8.28-9.79-10.87a39.81,39.81,0,0,0-13.68-2A45.28,45.28,0,0,0,202,37.12l.14-8.5q0-5.46-.21-12t-.36-7.71V7.3q0-.42-3.75-.93a60.92,60.92,0,0,0-8.2-.51,50.88,50.88,0,0,0-10.51,1v9.8q0,15.55-.58,39.76-.44,17.85-.43,34.57,0,12.52.14,18.15h4l10.22.29a61.9,61.9,0,0,0,8.92-.58,2.2,2.2,0,0,0,.72-1.58v-3.61A13,13,0,0,0,213,109a12.6,12.6,0,0,0,2.16-.14h-.14q10.8-1,16.41-6.91A29.74,29.74,0,0,0,239,87.76a112.72,112.72,0,0,0,2.3-20.24A51.31,51.31,0,0,0,238,48.43ZM217.51,84.3q-3,5.4-7.92,5.4-5.33,0-6.77-4.82t-1.44-15.35a107.45,107.45,0,0,1,.36-10.8c.24-2,.79-3.36,1.66-4s2.4-1,4.6-1a11.91,11.91,0,0,1,7.85,2.45,11.08,11.08,0,0,1,3.67,7.2l.86.58-.71-.44q.86,2.31.86,8.07A25.74,25.74,0,0,1,217.51,84.3Zm84.64,3.46a111.73,111.73,0,0,0,2.31-20.24,51.11,51.11,0,0,0-3.32-19.09q-3.3-8.28-9.78-10.87a39.81,39.81,0,0,0-13.68-2,45.41,45.41,0,0,0-12.53,1.58l.15-8.5q0-5.46-.22-12t-.36-7.71V7.3c0-.28-1.25-.59-3.74-.93a61.07,61.07,0,0,0-8.21-.51,50.71,50.71,0,0,0-10.5,1v9.8q0,15.55-.58,39.76-.44,17.85-.43,34.57,0,12.52.14,18.15h4l10.22.29a62,62,0,0,0,8.93-.58,2.2,2.2,0,0,0,.72-1.58v-3.61A13,13,0,0,0,276.24,109a12.6,12.6,0,0,0,2.16-.14h-.15q10.8-1,16.42-6.91A29.73,29.73,0,0,0,302.15,87.76ZM280.7,84.3q-3,5.4-7.92,5.4-5.32,0-6.76-4.82t-1.44-15.35a107.45,107.45,0,0,1,.36-10.8c.24-2,.79-3.36,1.65-4s2.4-1,4.61-1a11.93,11.93,0,0,1,7.85,2.45,11.12,11.12,0,0,1,3.67,7.2l.86.58-.72-.44q.87,2.31.87,8.07A25.64,25.64,0,0,1,280.7,84.3Zm68.67-48.47q-2.44.14-7.05.14-1.15-.44-2.24,6.12t-2.52,19.23q-.85,6.92-1.65,13t-1.51,7.2Q333,76.3,330.08,61.18q-.87-5.48-1.44-8.21a155.4,155.4,0,0,0-3.17-16.71H323.6a44.38,44.38,0,0,0-6.19-.29l-9.93.14a47.39,47.39,0,0,1-7.92-.72,67.09,67.09,0,0,0,2.59,9.22v-.14q10.52,38.46,14.54,60.79l.14,1.87q0,7.35-7.63,7.35c-1.92,0-3.4,0-4.46-.15s-3.31-.14-6.76-.14a42.27,42.27,0,0,0-.87,8.64,38.19,38.19,0,0,0,1.73,11.81c2.3.2,4.56.29,6.77.29q17.7,0,27.85-7.78a45.24,45.24,0,0,0,14.69-18.72,193.61,193.61,0,0,0,8.7-28.52q3.31-12.82,2.88-11.24,1.44-5.48,3.17-13.25,2.88-12.68,4.61-19.45L357,35.68Zm96.52-23Q432.86,5,414.29,5a83.92,83.92,0,0,0-23.17,3.17q.42,10.67.43,34.14V59.74q0,34.57.57,48.54a112.54,112.54,0,0,0,13.25.72q9.64,0,13.53-1.15l1.58-.14V78.47c0-1,0-2,.07-3.17a26.61,26.61,0,0,0-.07-3.46,7,7,0,0,0,1.73.07,11.36,11.36,0,0,1,1.15-.07,36.87,36.87,0,0,0,16.7-4A38,38,0,0,0,453.31,57a30.52,30.52,0,0,0,6.33-15.12,38,38,0,0,0,.14-3.89v-.15Q458.92,20.71,445.89,12.85ZM433.3,45.62a7.08,7.08,0,0,1-3.68,2.88,16.29,16.29,0,0,1-5.61.87h-6.26a21.12,21.12,0,0,1-.94-5q-.21-2.8-.21-7.13V36q0-5.47-.15-7.78c1,0,2.38,0,4.25.07a31.15,31.15,0,0,1,5.54.65,11.1,11.1,0,0,1,5,2.6l1.15,1.29a12.33,12.33,0,0,1,2.3,7.2A11,11,0,0,1,433.3,45.62Zm91.84,22.47Q525,63.05,525,53c0-5,0-8.74.14-11.24a24.75,24.75,0,0,0-.22-3.17,23.25,23.25,0,0,1-.21-2.45h-1.87l-9.07-.43c-.77-.09-2.57-.26-5.4-.5s-5.11-.36-6.84-.36a3.81,3.81,0,0,0-2,.29,2,2,0,0,0-.15,1.73,8.15,8.15,0,0,1,.29,1.87q-1-1-4.9-1.73a45.77,45.77,0,0,0-8.34-.72A22.8,22.8,0,0,0,473,40.87,30,30,0,0,0,463.53,53a41.53,41.53,0,0,0-3.46,17.21A65,65,0,0,0,462.66,88a40.32,40.32,0,0,0,7.85,15.35,16.25,16.25,0,0,0,12.88,6.19,27.66,27.66,0,0,0,8.35-1.37,33,33,0,0,0,7.92-3.67v1c0,1.92,1.1,3.21,3.31,3.89h18.28c1.63-.29,2.64-.85,3-1.66a8.63,8.63,0,0,0,.57-3.53v-1.44q.43-8.93.43-17.43l-.14-8.64ZM499.52,73a78.33,78.33,0,0,1-.36,8.64,8.77,8.77,0,0,1-1.8,4.61c-1,1.16-2.5,1.73-4.61,1.73A8.91,8.91,0,0,1,485,83.72a18.35,18.35,0,0,1-2.88-10.58,26.56,26.56,0,0,1,.86-7.49,11.6,11.6,0,0,1,3.74-6.13A11,11,0,0,1,494.19,57a6.8,6.8,0,0,1,3.81.79,4.07,4.07,0,0,1,1.3,3c.14,1.49.22,4.3.22,8.43ZM705.23,36l-10.51-.29-7.63.15Q684.65,36,680,36q-1.15-.44-2.23,6.12t-2.52,19.23q-.87,6.92-1.66,13t-1.51,7.2q-1.44-5.19-4.32-20.31c-.57-3.65-1.06-6.39-1.44-8.21a155.4,155.4,0,0,0-3.17-16.71h-1.87a44.28,44.28,0,0,0-6.19-.29l-9.93.14a47.39,47.39,0,0,1-7.92-.72c0,.15.07.29.1.44h-1.25c-.48,0-1.08,0-1.8-.08a10.31,10.31,0,0,0-2.09.08l-2,.14q-5.76.44-13.25.72l-.14-1.44V9a37.57,37.57,0,0,1-5.61.44c-1.25,0-3-.1-5.33-.29l-1-.15c-2.11-.19-3.93-.28-5.47-.28s-3.36.09-5.47.28l-.14,27.52q-6.18,0-10-.14l-.06-.58h-3.31c-.48,0-1.08,0-1.8-.08a10.31,10.31,0,0,0-2.09.08l-2,.14q-5.76.44-13.25.72l-.14-1.44V9a37.57,37.57,0,0,1-5.61.44c-1.25,0-3-.1-5.33-.29l-1-.15c-2.11-.19-3.94-.28-5.47-.28s-3.36.09-5.47.28l-.14,27.52c-4.23,0-7.63,0-10.22-.15l-.44,19h4.32c.77,0,1.66,0,2.67.07a28.2,28.2,0,0,0,3.38-.07v7.2q0,9.95.43,17.65A141.77,141.77,0,0,0,540,95.75q3.16,7.5,13,10.59a76.57,76.57,0,0,0,23,3.1q3.88,0,7.63-.29a25.55,25.55,0,0,0,1.29-8.36A76.53,76.53,0,0,0,584,90v.14l-.14-.57v-1.3l-3,.14a51.89,51.89,0,0,1-11.66-1.29q-5.61-1.31-7.77-4,.14-5.19.14-28.09h21.6v.43h4.32c.77,0,1.66,0,2.67.07a28.2,28.2,0,0,0,3.38-.07v7.2q0,9.95.43,17.65a144.28,144.28,0,0,0,1.73,15.48q3.17,7.5,13,10.59a76.57,76.57,0,0,0,23,3.1q3.89,0,7.63-.29a25.55,25.55,0,0,0,1.29-8.36,76.53,76.53,0,0,0-.86-10.8v.14l-.14-.57v-1.3l-3,.14a52,52,0,0,1-11.66-1.29q-5.61-1.31-7.77-4,.14-5.19.14-28.09h22.46a31.12,31.12,0,0,1-.29-3.32l.15-3.17.14-1.58c.07-.92.13-1.7.17-2.34Q650.39,83,654.41,105.26l.15,1.87q0,7.35-7.63,7.35-2.88,0-4.47-.15c-1.05-.09-3.31-.14-6.76-.14a42.27,42.27,0,0,0-.87,8.64,38.19,38.19,0,0,0,1.73,11.81c2.31.2,4.56.29,6.77.29q17.7,0,27.85-7.78a45.16,45.16,0,0,0,14.69-18.72,194.7,194.7,0,0,0,8.71-28.52q3.3-12.82,2.88-11.24,1.44-5.48,3.16-13.25Q703.5,42.75,705.23,36Z"/><path class="cls-2" d="M174.05,63.09q-.15-5-.15-15.12,0-7.48.15-11.24a26.71,26.71,0,0,0-.22-3.17,24.05,24.05,0,0,1-.22-2.45h-1.87l-9.07-.43c-.77-.09-2.57-.26-5.4-.5s-5.11-.36-6.83-.36a3.84,3.84,0,0,0-2,.29,2,2,0,0,0-.14,1.73,8.15,8.15,0,0,1,.29,1.87q-1-1-4.9-1.73a45.89,45.89,0,0,0-8.35-.72,22.82,22.82,0,0,0-13.39,4.61,29.78,29.78,0,0,0-9.29,11.75l-.06-8.15.14-7.49q0-.72-7-.72A54.32,54.32,0,0,0,90,33.13a15.91,15.91,0,0,0-2.08.79,7.86,7.86,0,0,1-1.8.65v-.14L85.94,31c0-.29-.81-.43-2.44-.43a54.11,54.11,0,0,0-6.77.43,61.19,61.19,0,0,1-7.34.43,62.45,62.45,0,0,1-7.2-.57q-.28,13-.29,20,0,9.65.29,28.38.11,6.24.13,17.46L40.74,51.86A158.14,158.14,0,0,1,51.25,32l.86-1.44q5.47-9.51,8.5-15.49A68.19,68.19,0,0,0,65.36,3,71.14,71.14,0,0,0,51.54,2.3L42,2.16a139,139,0,0,0-9.65,16.13,157,157,0,0,1-7.77,13.83V29.24q0-21.31-.15-26.79Q17,2.45,14.25,2.3,5.61,2,.86,2.16q0,21.18-.43,38.46Q0,57.62,0,74.76q0,15.85.58,28.38a58.28,58.28,0,0,0,13.24,1.44,45.34,45.34,0,0,0,12.09-1.44q0-5.33-.29-14.26-.29-10.95-.28-18.3l.57,1.88.43,1.73a14.71,14.71,0,0,0,.51,2.08,17.61,17.61,0,0,0,1.22,3.25Q31.82,88,34.84,93.7A57.87,57.87,0,0,0,41.75,104c2.88,0,4.84,0,5.9.15,3.26.19,5.81.29,7.63.29a44.38,44.38,0,0,0,7-.55v1c2.11-.2,4.32-.29,6.63-.29,2.11,0,3.64,0,4.6.14a48.67,48.67,0,0,0,6.19-.07,37.11,37.11,0,0,0,6.19-1.22q0-20.9-.57-38.61-.15-5.32,2.16-7.49c1.53-1.44,3.79-2.16,6.76-2.16a51.87,51.87,0,0,1,6.19.43l8.35,2,.72.24a46.6,46.6,0,0,0-.57,7.39A65,65,0,0,0,111.57,83a40.45,40.45,0,0,0,7.84,15.35,16.29,16.29,0,0,0,12.89,6.19,27.71,27.71,0,0,0,8.35-1.37,33,33,0,0,0,7.92-3.67v1c0,1.92,1.1,3.21,3.31,3.89h18.28c1.63-.29,2.64-.85,3-1.66a8.61,8.61,0,0,0,.58-3.53V97.81q.44-8.93.43-17.43l-.14-8.64ZM148.42,68a75.89,75.89,0,0,1-.36,8.64,8.69,8.69,0,0,1-1.8,4.61c-1,1.16-2.5,1.73-4.6,1.73a8.93,8.93,0,0,1-7.78-4.25A18.43,18.43,0,0,1,131,68.14a26.52,26.52,0,0,1,.87-7.49,11.54,11.54,0,0,1,3.74-6.13A10.94,10.94,0,0,1,143.09,52a6.81,6.81,0,0,1,3.82.79,4.1,4.1,0,0,1,1.3,3q.21,2.24.21,8.43ZM236,43.43q-3.31-8.28-9.79-10.87a39.81,39.81,0,0,0-13.68-2A45.28,45.28,0,0,0,200,32.12l.14-8.5q0-5.46-.21-12t-.36-7.71V2.3q0-.42-3.75-.93a60.92,60.92,0,0,0-8.2-.51,50.88,50.88,0,0,0-10.51,1v9.8q0,15.56-.58,39.76-.44,17.85-.43,34.57,0,12.52.14,18.15h4l10.22.29a61.9,61.9,0,0,0,8.92-.58,2.2,2.2,0,0,0,.72-1.58V98.67A13,13,0,0,0,211,104a12.6,12.6,0,0,0,2.16-.14h-.14q10.8-1,16.41-6.91A29.74,29.74,0,0,0,237,82.76a112.72,112.72,0,0,0,2.3-20.24A51.31,51.31,0,0,0,236,43.43ZM215.51,79.3q-3,5.4-7.92,5.4-5.33,0-6.77-4.82t-1.44-15.35a107.45,107.45,0,0,1,.36-10.8c.24-2,.79-3.36,1.66-4s2.4-1,4.6-1a11.91,11.91,0,0,1,7.85,2.45,11.08,11.08,0,0,1,3.67,7.2l.86.58-.71-.44q.86,2.31.86,8.07A25.74,25.74,0,0,1,215.51,79.3Zm84.64,3.46a111.73,111.73,0,0,0,2.31-20.24,51.11,51.11,0,0,0-3.32-19.09q-3.3-8.28-9.78-10.87a39.81,39.81,0,0,0-13.68-2,45.41,45.41,0,0,0-12.53,1.58l.15-8.5q0-5.46-.22-12t-.36-7.71V2.3c0-.28-1.25-.59-3.74-.93a61.07,61.07,0,0,0-8.21-.51,50.71,50.71,0,0,0-10.5,1v9.8q0,15.56-.58,39.76-.44,17.85-.43,34.57,0,12.52.14,18.15h4l10.22.29a62,62,0,0,0,8.93-.58,2.2,2.2,0,0,0,.72-1.58V98.67A13,13,0,0,0,274.24,104a12.6,12.6,0,0,0,2.16-.14h-.15q10.8-1,16.42-6.91A29.73,29.73,0,0,0,300.15,82.76ZM278.7,79.3q-3,5.4-7.92,5.4-5.32,0-6.76-4.82t-1.44-15.35a107.45,107.45,0,0,1,.36-10.8c.24-2,.79-3.36,1.65-4s2.4-1,4.61-1a11.93,11.93,0,0,1,7.85,2.45,11.12,11.12,0,0,1,3.67,7.2l.86.58-.72-.44q.87,2.31.87,8.07A25.64,25.64,0,0,1,278.7,79.3Zm68.67-48.47q-2.44.14-7.05.14-1.15-.43-2.24,6.12t-2.52,19.23q-.85,6.91-1.65,13t-1.51,7.2Q331,71.3,328.08,56.18q-.87-5.48-1.44-8.21a155.4,155.4,0,0,0-3.17-16.71H321.6a44.38,44.38,0,0,0-6.19-.29l-9.93.14a47.39,47.39,0,0,1-7.92-.72,67.09,67.09,0,0,0,2.59,9.22v-.14q10.52,38.46,14.54,60.79l.14,1.87q0,7.35-7.63,7.35c-1.92,0-3.4,0-4.46-.15s-3.31-.14-6.76-.14a42.27,42.27,0,0,0-.87,8.64,38.19,38.19,0,0,0,1.73,11.81c2.3.2,4.56.29,6.77.29q17.7,0,27.85-7.78a45.24,45.24,0,0,0,14.69-18.72,193.61,193.61,0,0,0,8.7-28.52q3.31-12.82,2.88-11.24,1.44-5.47,3.17-13.25,2.88-12.68,4.61-19.45L355,30.68Zm96.52-23Q430.86,0,412.29,0a83.92,83.92,0,0,0-23.17,3.17q.42,10.67.43,34.14V54.74q0,34.57.57,48.54a112.54,112.54,0,0,0,13.25.72q9.64,0,13.53-1.15l1.58-.14V73.47c0-1,0-2,.07-3.17a26.61,26.61,0,0,0-.07-3.46,7,7,0,0,0,1.73.07,11.36,11.36,0,0,1,1.15-.07,36.87,36.87,0,0,0,16.7-4A38,38,0,0,0,451.31,52a30.52,30.52,0,0,0,6.33-15.12,38,38,0,0,0,.14-3.89v-.15Q456.92,15.71,443.89,7.85ZM431.3,40.62a7.08,7.08,0,0,1-3.68,2.88,16.29,16.29,0,0,1-5.61.87h-6.26a21.12,21.12,0,0,1-.94-5q-.21-2.8-.21-7.13V31q0-5.47-.15-7.78c1,0,2.38,0,4.25.07a31.15,31.15,0,0,1,5.54.65,11.1,11.1,0,0,1,5,2.6l1.15,1.29a12.33,12.33,0,0,1,2.3,7.2A11,11,0,0,1,431.3,40.62Zm91.84,22.47Q523,58.05,523,48c0-5,0-8.74.14-11.24a24.75,24.75,0,0,0-.22-3.17,23.25,23.25,0,0,1-.21-2.45h-1.87l-9.07-.43c-.77-.09-2.57-.26-5.4-.5s-5.11-.36-6.84-.36a3.81,3.81,0,0,0-2,.29,2,2,0,0,0-.15,1.73,8.15,8.15,0,0,1,.29,1.87q-1-1-4.9-1.73a45.77,45.77,0,0,0-8.34-.72A22.8,22.8,0,0,0,471,35.87,30,30,0,0,0,461.53,48a41.53,41.53,0,0,0-3.46,17.21A65,65,0,0,0,460.66,83a40.32,40.32,0,0,0,7.85,15.35,16.25,16.25,0,0,0,12.88,6.19,27.66,27.66,0,0,0,8.35-1.37,33,33,0,0,0,7.92-3.67v1c0,1.92,1.1,3.21,3.31,3.89h18.28c1.63-.29,2.64-.85,3-1.66a8.63,8.63,0,0,0,.57-3.53V97.81q.43-8.93.43-17.43l-.14-8.64ZM497.52,68a78.33,78.33,0,0,1-.36,8.64,8.77,8.77,0,0,1-1.8,4.61c-1,1.16-2.5,1.73-4.61,1.73A8.91,8.91,0,0,1,483,78.72a18.35,18.35,0,0,1-2.88-10.58,26.56,26.56,0,0,1,.86-7.49,11.6,11.6,0,0,1,3.74-6.13A11,11,0,0,1,492.19,52a6.8,6.8,0,0,1,3.81.79,4.07,4.07,0,0,1,1.3,3c.14,1.49.22,4.3.22,8.43ZM703.23,31l-10.51-.29-7.63.15Q682.65,31,678,31q-1.15-.43-2.23,6.12t-2.52,19.23q-.87,6.91-1.66,13t-1.51,7.2q-1.44-5.19-4.32-20.31c-.57-3.65-1.06-6.39-1.44-8.21a155.4,155.4,0,0,0-3.17-16.71h-1.87a44.28,44.28,0,0,0-6.19-.29l-9.93.14a47.39,47.39,0,0,1-7.92-.72c0,.15.07.29.1.44h-1.25c-.48,0-1.08,0-1.8-.08a10.31,10.31,0,0,0-2.09.08l-2,.14q-5.76.44-13.25.72l-.14-1.44V4a37.57,37.57,0,0,1-5.61.44c-1.25,0-3-.1-5.33-.29l-1-.15c-2.11-.19-3.93-.28-5.47-.28s-3.36.09-5.47.28l-.14,27.52q-6.18,0-10-.14l-.06-.58h-3.31c-.48,0-1.08,0-1.8-.08a10.31,10.31,0,0,0-2.09.08l-2,.14q-5.76.44-13.25.72l-.14-1.44V4a37.57,37.57,0,0,1-5.61.44c-1.25,0-3-.1-5.33-.29l-1-.15c-2.11-.19-3.94-.28-5.47-.28s-3.36.09-5.47.28l-.14,27.52c-4.23,0-7.63-.05-10.22-.15l-.44,19h4.32c.77,0,1.66,0,2.67.07a28.2,28.2,0,0,0,3.38-.07v7.2q0,9.95.43,17.65A141.77,141.77,0,0,0,538,90.75q3.16,7.5,13,10.59a76.57,76.57,0,0,0,23,3.1q3.88,0,7.63-.29a25.55,25.55,0,0,0,1.29-8.36A76.53,76.53,0,0,0,582,85v.14l-.14-.57v-1.3l-3,.14a51.89,51.89,0,0,1-11.66-1.29q-5.61-1.31-7.77-4,.14-5.19.14-28.09h21.6v.43h4.32c.77,0,1.66,0,2.67.07a28.2,28.2,0,0,0,3.38-.07v7.2q0,9.95.43,17.65a144.28,144.28,0,0,0,1.73,15.48q3.17,7.5,13,10.59a76.57,76.57,0,0,0,23,3.1q3.89,0,7.63-.29a25.55,25.55,0,0,0,1.29-8.36,76.53,76.53,0,0,0-.86-10.8v.14l-.14-.57v-1.3l-3,.14a52,52,0,0,1-11.66-1.29q-5.61-1.31-7.77-4,.14-5.19.14-28.09h22.46a31.12,31.12,0,0,1-.29-3.32l.15-3.17.14-1.58c.07-.92.13-1.7.17-2.34Q648.39,78,652.41,100.26l.15,1.87q0,7.35-7.63,7.35-2.88,0-4.47-.15c-1.05-.09-3.31-.14-6.76-.14a42.27,42.27,0,0,0-.87,8.64,38.19,38.19,0,0,0,1.73,11.81c2.31.2,4.56.29,6.77.29q17.7,0,27.85-7.78a45.16,45.16,0,0,0,14.69-18.72,194.7,194.7,0,0,0,8.71-28.52q3.3-12.82,2.88-11.24,1.44-5.47,3.16-13.25Q701.5,37.74,703.23,31Z"/></g></g></svg>