<?xml version="1.0" encoding="utf-8"?>
<!-- Generator: Adobe Illustrator 25.4.6, SVG Export Plug-In . SVG Version: 6.00 Build 0)  -->
<svg version="1.1" id="Layer_1" xmlns="http://www.w3.org/2000/svg" xmlns:xlink="http://www.w3.org/1999/xlink" x="0px" y="0px"
	 viewBox="0 0 370.8 252" style="enable-background:new 0 0 370.8 252;" xml:space="preserve">
<style type="text/css">
	.st0{fill:#FFFFFF;}
	.st1{fill:#B70202;}
</style>
<g id="Layer_2_00000142863905528667639740000000512568640034070404_">
	<g id="Layer_1-2">
		<path class="st0" d="M19.1,108.7c4.1,0.1,8.1-0.4,12.1-1.4c0-3.6-0.1-8.3-0.3-14.3c-0.2-7.3-0.3-13.4-0.3-18.3l0.6,1.9l0.4,1.7
			c0.1,0.7,0.3,1.4,0.5,2.1c0.3,1.1,0.7,2.2,1.2,3.2c2.5,5.7,4.7,10.4,6.8,14.2c1.9,3.7,4.2,7.1,6.9,10.3c2.9,0,4.8,0,5.9,0.1
			c3.3,0.2,5.8,0.3,7.6,0.3c2.4,0,4.7-0.2,7-0.5v1c2.1-0.2,4.3-0.3,6.6-0.3c2.1,0,3.7,0,4.6,0.1c2.1,0.1,4.1,0.1,6.2-0.1
			c2.1-0.2,4.2-0.7,6.2-1.2c0-13.9-0.2-26.8-0.6-38.6c-0.1-3.5,0.6-6,2.2-7.5c1.5-1.4,3.8-2.2,6.8-2.2c2.1,0,4.1,0.2,6.2,0.4l8.3,2
			l0.7,0.2c-0.4,2.4-0.6,4.9-0.6,7.4c0,6,0.9,12,2.6,17.8c1.5,5.6,4.2,10.9,7.8,15.3c3.1,3.9,7.9,6.2,12.9,6.2
			c2.8,0,5.7-0.5,8.4-1.4c2.8-0.9,5.4-2.1,7.9-3.7v1c0,1.9,1.1,3.2,3.3,3.9h18.3c1.6-0.3,2.6-0.8,3-1.7c0.4-1.1,0.6-2.3,0.6-3.5V102
			c0.3-6,0.4-11.8,0.4-17.4l-0.1-8.7v-8.7c-0.1-3.3-0.1-8.4-0.1-15.1c0-5,0-8.7,0.1-11.2c0-1.1-0.1-2.1-0.2-3.2
			c-0.1-0.8-0.2-1.6-0.2-2.5H177l-9-0.4c-0.8-0.1-2.6-0.3-5.4-0.5c-2.8-0.2-5.1-0.4-6.8-0.4c-0.7-0.1-1.4,0-2,0.3
			c-0.3,0.5-0.4,1.2-0.1,1.7c0.2,0.6,0.3,1.2,0.3,1.9c-0.7-0.7-2.3-1.2-4.9-1.7c-2.8-0.5-5.6-0.7-8.4-0.7c-4.9,0.1-9.6,1.7-13.4,4.6
			c-4,3.1-7.2,7.1-9.3,11.8l-0.1-8.1l0.2-7.5c0-0.5-2.3-0.7-7.1-0.7c-5.3-0.1-10.6,0.5-15.7,1.9c-0.7,0.2-1.4,0.5-2.1,0.8
			c-0.6,0.3-1.2,0.5-1.8,0.7v-0.2l-0.2-3.5c0-0.3-0.8-0.4-2.4-0.4c-2.3,0-4.5,0.2-6.8,0.4c-2.4,0.3-4.9,0.4-7.3,0.4
			c-2.4-0.1-4.8-0.2-7.2-0.6c-0.2,8.7-0.3,15.3-0.3,20c0,6.4,0.1,15.9,0.3,28.4c0.1,4.2,0.1,10,0.1,17.5L46,56
			c3-6.9,6.6-13.5,10.5-19.9l0.9-1.4c3.7-6.3,6.5-11.5,8.5-15.5c2-3.8,3.6-7.9,4.8-12c-4.6-0.7-9.2-0.9-13.8-0.7l-9.5-0.2
			c-3.6,5.2-6.8,10.5-9.6,16.1c-2.4,4.7-5,9.4-7.8,13.8v-2.9c0-14.2,0-23.1-0.1-26.8c-5,0-8.4,0-10.2-0.1C13.8,6.2,9.3,6.2,6.2,6.3
			c0,14.1-0.1,26.9-0.4,38.5C5.4,56.1,5.3,67.5,5.3,78.9c0,10.6,0.2,20,0.6,28.4C10.2,108.3,14.7,108.7,19.1,108.7z M137.1,64.8
			c0.6-2.4,1.9-4.5,3.8-6.1c2.1-1.7,4.8-2.6,7.5-2.5c1.3-0.1,2.7,0.2,3.8,0.8c0.8,0.8,1.3,1.9,1.3,3c0.1,1.5,0.2,4.3,0.2,8.4v3.8
			c0,2.9-0.1,5.8-0.4,8.6c-0.1,1.7-0.8,3.3-1.8,4.6c-1.2,1.2-2.9,1.9-4.6,1.7c-3.2,0-6.1-1.6-7.8-4.2c-2-3.2-3-6.8-2.9-10.6
			C136.2,69.7,136.5,67.2,137.1,64.8L137.1,64.8z M185.5,108.3l10.2,0.3c3,0,6-0.2,8.9-0.6c0.4-0.4,0.7-1,0.7-1.6v-3.6
			c2.5,3.5,6.6,5.5,10.9,5.3c0.7,0,1.4,0,2.2-0.1h-0.1c7.2-0.7,12.7-3,16.4-6.9c3.8-4,6.3-8.9,7.5-14.2c1.4-6.7,2.2-13.4,2.3-20.2
			c0.1-6.5-1-13-3.3-19.1c-2.2-5.5-5.5-9.1-9.8-10.9c-4.4-1.5-9-2.1-13.7-2c-4.2-0.1-8.4,0.5-12.5,1.6l0.1-8.5c0-3.7-0.1-7.7-0.2-12
			s-0.3-6.9-0.3-7.8V6.4c0-0.3-1.2-0.6-3.7-0.9c-2.7-0.3-5.5-0.5-8.2-0.5c-3.5,0-7.1,0.3-10.5,1v9.8c0,10.4-0.2,23.6-0.6,39.8
			c-0.3,11.9-0.4,23.4-0.4,34.6c0,8.4,0,14.4,0.1,18.2H185.5z M205,57.9c0.2-2,0.8-3.4,1.7-4s2.4-1,4.6-1c2.8-0.1,5.6,0.7,7.9,2.5
			c2.1,1.9,3.4,4.4,3.7,7.2l0.9,0.6l-0.7-0.4c0.6,1.5,0.9,4.2,0.9,8.1c0.1,4.4-0.9,8.8-3,12.8c-2,3.6-4.6,5.4-7.9,5.4
			c-3.6,0-5.8-1.6-6.8-4.8s-1.4-8.3-1.4-15.3C204.6,65.1,204.7,61.5,205,57.9z M244.7,108.3h4l10.2,0.3c3,0,6-0.2,8.9-0.6
			c0.4-0.4,0.7-1,0.7-1.6v-3.6c2.5,3.5,6.6,5.5,10.9,5.3c0.7,0,1.4,0,2.2-0.1h-0.1c7.2-0.7,12.7-3,16.4-6.9c3.8-4,6.3-8.9,7.5-14.2
			c1.4-6.7,2.2-13.4,2.3-20.2c0.1-6.5-1-13-3.3-19.1c-2.2-5.5-5.5-9.1-9.8-10.9c-4.4-1.5-9-2.1-13.7-2c-4.2-0.1-8.4,0.5-12.5,1.6
			l0.1-8.5c0-3.7-0.1-7.7-0.2-12S268.1,8.8,268,8V6.4c0-0.3-1.2-0.6-3.7-0.9c-2.7-0.3-5.5-0.5-8.2-0.5c-3.5,0-7.1,0.3-10.5,1v9.8
			c0,10.4-0.2,23.6-0.6,39.8c-0.3,11.9-0.4,23.4-0.4,34.6C244.5,98.5,244.6,104.5,244.7,108.3L244.7,108.3z M268.2,57.9
			c0.2-2,0.8-3.4,1.6-4s2.4-1,4.6-1c2.8-0.1,5.6,0.7,7.8,2.5c2.1,1.8,3.4,4.4,3.7,7.2l0.9,0.6l-0.7-0.4c0.6,1.5,0.9,4.2,0.9,8.1
			c0.1,4.4-0.9,8.8-3,12.8c-2,3.6-4.6,5.4-7.9,5.4c-3.5,0-5.8-1.6-6.8-4.8s-1.4-8.3-1.4-15.3C267.8,65.1,267.9,61.5,268.2,57.9
			L268.2,57.9z M370.8,35.1l-10.5-0.3l-7.6,0.1c-1.6,0.1-4,0.2-7.1,0.2c-0.8-0.3-1.5,1.7-2.2,6.1c-0.7,4.4-1.6,10.8-2.5,19.2
			c-0.6,4.6-1.1,8.9-1.6,13s-1,6.4-1.5,7.2c-1-3.5-2.4-10.2-4.3-20.3c-0.6-3.7-1.1-6.4-1.4-8.2c-0.8-5.6-1.8-11.2-3.2-16.7h-1.9
			c-2.1-0.2-4.1-0.3-6.2-0.3l-9.9,0.1c-2.7,0-5.3-0.3-7.9-0.7c0.6,3.1,1.5,6.2,2.6,9.2v-0.1c7,25.6,11.8,45.9,14.5,60.8l0.1,1.9
			c0,4.9-2.5,7.3-7.6,7.3c-1.9,0-3.4,0-4.5-0.1s-3.3-0.1-6.8-0.1c-0.6,2.8-0.9,5.7-0.9,8.6c0,4,0.5,8,1.7,11.8
			c2.3,0.2,4.6,0.3,6.8,0.3c11.8,0,21.1-2.6,27.9-7.8c6.5-4.8,11.5-11.3,14.7-18.7c3.6-9.3,6.6-18.9,8.7-28.6
			c2.2-8.5,3.2-12.3,2.9-11.2c1-3.7,2-8.1,3.2-13.3C368.1,46.1,369.6,39.6,370.8,35.1z M77.8,129c-8.7-5.2-19.2-7.9-31.6-7.8
			c-7.8,0-15.6,1-23.2,3.2c0.3,7.1,0.4,18.5,0.4,34.1v17.4c0,23,0.2,39.2,0.6,48.6c4.4,0.5,8.8,0.7,13.2,0.7
			c6.4,0,10.9-0.4,13.5-1.1l1.6-0.1v-29.2c0-1,0-2,0.1-3.2c0-1.2,0-2.3-0.1-3.5c0.6,0.1,1.2,0.1,1.7,0.1c0.5-0.1,0.9-0.1,1.2-0.1
			c5.8,0,11.6-1.3,16.8-4c5.2-2.6,9.7-6.3,13.2-10.9c3.4-4.4,5.6-9.6,6.3-15.1c0.1-1.3,0.2-2.6,0.2-3.9V154
			C91.1,142.6,86.5,134.2,77.8,129z M65.2,161.8c-0.9,1.3-2.2,2.4-3.7,2.9c-1.8,0.6-3.7,0.9-5.6,0.9h-6.3c-0.5-1.6-0.8-3.3-0.9-5
			c-0.1-1.9-0.2-4.2-0.2-7.1v-1.3c0-3.7,0-6.2-0.1-7.8c1,0,2.4,0,4.2,0.1c1.9,0.1,3.7,0.3,5.5,0.6c1.9,0.4,3.6,1.3,5,2.6l1.2,1.3
			c1.5,2.1,2.3,4.6,2.3,7.2C66.6,158.1,66.2,160,65.2,161.8L65.2,161.8z M157,184.2c-0.1-3.3-0.1-8.4-0.1-15.1c0-5,0.1-8.7,0.1-11.2
			c0-1.1-0.1-2.1-0.2-3.2c-0.1-0.8-0.2-1.6-0.2-2.4h-1.9l-9.1-0.4c-0.8-0.1-2.6-0.3-5.4-0.5c-2.8-0.2-5.1-0.4-6.8-0.4
			c-0.7-0.1-1.4,0-2,0.3c-0.3,0.5-0.4,1.2-0.1,1.7c0.2,0.6,0.3,1.2,0.3,1.9c-0.7-0.7-2.3-1.2-4.9-1.7c-2.8-0.5-5.6-0.7-8.3-0.7
			c-4.8,0.1-9.5,1.7-13.4,4.6c-4.2,3.2-7.5,7.4-9.5,12.2c-2.3,5.4-3.5,11.3-3.4,17.2c0,6,0.9,12,2.6,17.8c1.5,5.6,4.2,10.9,7.8,15.3
			c3.1,3.9,7.9,6.2,12.9,6.2c2.8,0,5.7-0.5,8.3-1.4c2.8-0.9,5.4-2.1,7.9-3.7v1c0,1.9,1.1,3.2,3.3,3.9h18.3c1.6-0.3,2.6-0.8,3-1.6
			c0.4-1.1,0.6-2.3,0.6-3.5V219c0.3-6,0.4-11.8,0.4-17.4l-0.1-8.6L157,184.2z M131.4,189.1c0,2.9-0.1,5.8-0.4,8.6
			c-0.1,1.7-0.8,3.3-1.8,4.6c-1.2,1.2-2.9,1.9-4.6,1.7c-3.2,0-6.1-1.6-7.8-4.2c-2-3.2-3-6.9-2.8-10.6c-0.1-2.5,0.2-5,0.9-7.5
			c0.6-2.4,1.9-4.5,3.7-6.1c2.1-1.7,4.8-2.6,7.5-2.5c1.3-0.1,2.7,0.2,3.8,0.8c0.8,0.8,1.3,1.9,1.3,3c0.1,1.5,0.2,4.3,0.2,8.4
			L131.4,189.1z M319,152c-1.6,0.1-4,0.1-7.1,0.1c-0.8-0.3-1.5,1.7-2.2,6.1c-0.7,4.4-1.6,10.8-2.5,19.2c-0.6,4.6-1.1,8.9-1.6,13
			s-1,6.4-1.5,7.2c-1-3.5-2.4-10.2-4.3-20.3c-0.6-3.7-1.1-6.4-1.4-8.2c-0.8-5.6-1.8-11.2-3.2-16.7h-1.9c-2.1-0.2-4.1-0.3-6.2-0.3
			l-9.9,0.1c-2.7,0-5.3-0.3-7.9-0.7c0,0.1,0.1,0.3,0.1,0.4H268c-0.5,0-1.1,0-1.8-0.1c-0.7,0-1.4,0-2.1,0.1l-2,0.1
			c-3.8,0.3-8.2,0.5-13.2,0.7l-0.1-1.4v-26.3c-1.9,0.3-3.7,0.4-5.6,0.4c-1.2,0-3-0.1-5.3-0.3l-1-0.1c-2.1-0.2-3.9-0.3-5.5-0.3
			s-3.4,0.1-5.5,0.3l-0.1,27.5c-4.1,0-7.4,0-10-0.1c0-0.2,0-0.4,0-0.6h-3.4c-0.5,0-1.1,0-1.8-0.1c-0.7,0-1.4,0-2.1,0.1l-2,0.1
			c-3.8,0.3-8.2,0.5-13.2,0.7l-0.1-1.4v-26.2c-1.9,0.3-3.7,0.4-5.6,0.4c-1.2,0-3-0.1-5.3-0.3l-1-0.1c-2.1-0.2-3.9-0.3-5.5-0.3
			s-3.4,0.1-5.5,0.3l-0.1,27.5c-4.2,0-7.6,0-10.2-0.1l-0.4,19h4.3c0.8,0,1.6,0,2.7,0.1c1.1,0,2.3,0,3.4-0.1v7.2
			c0,6.6,0.1,12.5,0.4,17.6c0.3,5.2,0.9,10.4,1.7,15.5c2.1,5,6.4,8.5,13,10.6c7.5,2.2,15.2,3.2,23,3.1c2.6,0,5.1-0.1,7.6-0.3
			c0.9-2.7,1.3-5.5,1.3-8.4c0-3.6-0.3-7.2-0.9-10.8v0.1l-0.1-0.6v-1.3l-3,0.1c-3.9,0-7.8-0.4-11.7-1.3c-3.7-0.9-6.3-2.2-7.8-4
			c0.1-3.5,0.1-12.8,0.1-28.1h21.6v0.4h4.3c0.8,0,1.6,0,2.7,0.1c1.1,0,2.3,0,3.4-0.1v7.2c0,6.6,0.1,12.5,0.4,17.6
			c0.3,5.2,0.9,10.4,1.7,15.5c2.1,5,6.4,8.5,13,10.6c7.5,2.2,15.2,3.2,23,3.1c2.6,0,5.1-0.1,7.6-0.3c0.9-2.7,1.3-5.5,1.3-8.4
			c0-3.6-0.3-7.2-0.9-10.8v0.1l-0.2-0.6v-1.3l-3,0.1c-3.9,0-7.8-0.4-11.7-1.3c-3.7-0.9-6.3-2.2-7.8-4c0.1-3.5,0.1-12.8,0.1-28.1
			h22.5c-0.2-1.1-0.3-2.2-0.3-3.3l0.1-3.2l0.1-1.6c0.1-0.9,0.1-1.7,0.2-2.3c7,25.6,11.8,45.8,14.5,60.7l0.1,1.9
			c0,4.9-2.5,7.3-7.6,7.3c-1.9,0-3.4-0.1-4.5-0.1s-3.3-0.1-6.8-0.1c-0.6,2.8-0.9,5.7-0.9,8.6c0,4,0.5,8,1.7,11.8
			c2.3,0.2,4.6,0.3,6.8,0.3c11.8,0,21.1-2.6,27.9-7.8c6.5-4.8,11.5-11.3,14.7-18.7c3.6-9.3,6.5-18.9,8.6-28.6
			c2.2-8.5,3.2-12.3,2.9-11.2c1-3.7,2-8.1,3.2-13.3c1.9-8.5-14.5-16.9-13.4-21.4l7.5,1.7L319,152z"/>
		<path class="st1" d="M14.1,103.7c4.1,0.1,8.1-0.4,12.1-1.4c0-3.6-0.1-8.3-0.3-14.3c-0.2-7.3-0.3-13.4-0.3-18.3l0.6,1.9l0.4,1.7
			c0.1,0.7,0.3,1.4,0.5,2.1c0.3,1.1,0.7,2.2,1.2,3.2c2.5,5.7,4.7,10.4,6.8,14.2c1.9,3.7,4.2,7.1,6.9,10.3c2.9,0,4.8,0,5.9,0.1
			c3.3,0.2,5.8,0.3,7.6,0.3c2.3,0,4.7-0.2,7-0.5v1c2.1-0.2,4.3-0.3,6.6-0.3c2.1,0,3.7,0,4.6,0.1c2.1,0.1,4.1,0.1,6.2-0.1
			c2.1-0.2,4.2-0.7,6.2-1.2c0-13.9-0.2-26.8-0.6-38.6c-0.1-3.6,0.6-6,2.2-7.5c1.5-1.4,3.8-2.2,6.8-2.2c2.1,0,4.1,0.2,6.2,0.4l8.3,2
			l0.7,0.2c-0.4,2.4-0.6,4.9-0.6,7.4c0,6,0.9,12,2.6,17.8c1.5,5.6,4.2,10.9,7.8,15.3c3.1,3.9,7.9,6.2,12.9,6.2
			c2.8,0,5.7-0.5,8.4-1.4c2.8-0.9,5.4-2.1,7.9-3.7v1c0,1.9,1.1,3.2,3.3,3.9h18.3c1.6-0.3,2.6-0.8,3-1.7c0.4-1.1,0.6-2.3,0.6-3.5V97
			c0.3-6,0.4-11.8,0.4-17.4l-0.1-8.7v-8.7c-0.1-3.3-0.1-8.4-0.1-15.1c0-5,0-8.7,0.1-11.2c0-1.1-0.1-2.1-0.2-3.2
			c-0.1-0.8-0.2-1.6-0.2-2.5H172l-9-0.4c-0.8-0.1-2.6-0.3-5.4-0.5c-2.8-0.2-5.1-0.4-6.8-0.4c-0.7-0.1-1.4,0-2,0.3
			c-0.3,0.5-0.4,1.2-0.1,1.7c0.2,0.6,0.3,1.2,0.3,1.9c-0.7-0.7-2.3-1.2-4.9-1.7c-2.8-0.5-5.6-0.7-8.4-0.7c-4.9,0.1-9.6,1.7-13.4,4.6
			c-4,3.1-7.2,7.1-9.3,11.8l-0.1-8.1l0.2-7.5c0-0.5-2.3-0.7-7.1-0.7c-5.3-0.1-10.6,0.5-15.7,1.9c-0.7,0.2-1.4,0.5-2.1,0.8
			c-0.6,0.3-1.2,0.5-1.8,0.7v-0.2l-0.2-3.5c0-0.3-0.8-0.4-2.4-0.4c-2.3,0-4.5,0.2-6.8,0.4c-2.4,0.3-4.9,0.4-7.3,0.4
			c-2.4-0.1-4.8-0.2-7.2-0.6c-0.2,8.7-0.3,15.3-0.3,20c0,6.4,0.1,15.9,0.3,28.4c0.1,4.2,0.1,10,0.1,17.5L41,51
			c3-6.9,6.6-13.5,10.5-19.9l0.9-1.4c3.7-6.3,6.5-11.5,8.5-15.5c2-3.8,3.6-7.9,4.8-12c-4.6-0.7-9.2-0.9-13.8-0.7l-9.5-0.2
			c-3.6,5.2-6.8,10.5-9.6,16.1c-2.4,4.7-5,9.4-7.8,13.8v-2.9c0-14.2,0-23.1-0.1-26.8c-5,0-8.4,0-10.2-0.1C8.8,1.3,4.3,1.2,1.1,1.3
			c0,14.1-0.1,26.9-0.4,38.5C0.4,51.1,0.3,62.5,0.3,73.9c0,10.6,0.2,20,0.6,28.4C5.2,103.3,9.7,103.7,14.1,103.7z M132.1,59.8
			c0.6-2.4,1.9-4.5,3.8-6.1c2.1-1.7,4.8-2.6,7.5-2.5c1.3-0.1,2.7,0.2,3.8,0.8c0.8,0.8,1.3,1.9,1.3,3c0.1,1.5,0.2,4.3,0.2,8.4v3.8
			c0,2.9-0.1,5.8-0.4,8.6c-0.1,1.7-0.8,3.3-1.8,4.6c-1.2,1.2-2.9,1.9-4.6,1.7c-3.2,0-6.1-1.6-7.8-4.2c-2-3.2-3-6.8-2.9-10.6
			C131.2,64.7,131.5,62.2,132.1,59.8L132.1,59.8z M180.5,103.3l10.2,0.3c3,0,6-0.2,8.9-0.6c0.4-0.4,0.7-1,0.7-1.6v-3.6
			c2.5,3.5,6.6,5.5,10.9,5.3c0.7,0,1.4,0,2.2-0.1h-0.1c7.2-0.7,12.7-3,16.4-6.9c3.8-4,6.3-8.9,7.5-14.2c1.4-6.7,2.2-13.4,2.3-20.2
			c0.1-6.5-1-13-3.3-19.1c-2.2-5.5-5.5-9.1-9.8-10.9c-4.4-1.5-9-2.1-13.7-2c-4.2-0.1-8.4,0.5-12.5,1.6l0.1-8.5c0-3.7-0.1-7.7-0.2-12
			s-0.3-6.9-0.3-7.8V1.4c0-0.3-1.2-0.6-3.7-0.9c-2.7-0.3-5.5-0.5-8.2-0.5c-3.5,0-7.1,0.3-10.5,1v9.8c0,10.4-0.2,23.6-0.6,39.8
			c-0.3,11.9-0.4,23.4-0.4,34.6c0,8.4,0,14.4,0.1,18.2H180.5z M200,52.9c0.2-2,0.8-3.4,1.7-4s2.4-1,4.6-1c2.8-0.1,5.6,0.7,7.9,2.5
			c2.1,1.9,3.4,4.4,3.7,7.2l0.9,0.6l-0.7-0.4c0.6,1.5,0.9,4.2,0.9,8.1c0.1,4.4-0.9,8.8-3,12.8c-2,3.6-4.6,5.4-7.9,5.4
			c-3.6,0-5.8-1.6-6.8-4.8s-1.4-8.3-1.4-15.3C199.6,60.1,199.7,56.5,200,52.9z M239.7,103.3h4l10.2,0.3c3,0,6-0.2,8.9-0.6
			c0.4-0.4,0.7-1,0.7-1.6v-3.6c2.5,3.5,6.6,5.5,10.9,5.3c0.7,0,1.4,0,2.2-0.1h-0.1c7.2-0.7,12.7-3,16.4-6.9c3.8-4,6.3-8.9,7.5-14.2
			c1.4-6.7,2.2-13.4,2.3-20.2c0.1-6.5-1-13-3.3-19.1c-2.2-5.5-5.5-9.1-9.8-10.9c-4.4-1.5-9-2.1-13.7-2c-4.2-0.1-8.4,0.5-12.5,1.6
			l0.1-8.5c0-3.7-0.1-7.7-0.2-12S263.1,3.8,263,3V1.4c0-0.3-1.2-0.6-3.7-0.9c-2.7-0.3-5.5-0.5-8.2-0.5c-3.5,0-7.1,0.3-10.5,1v9.8
			c0,10.4-0.2,23.6-0.6,39.8c-0.3,11.9-0.4,23.4-0.4,34.6C239.5,93.5,239.6,99.5,239.7,103.3L239.7,103.3z M263.2,52.9
			c0.2-2,0.8-3.4,1.6-4s2.4-1,4.6-1c2.8-0.1,5.6,0.7,7.8,2.5c2.1,1.8,3.4,4.4,3.7,7.2l0.9,0.6l-0.7-0.4c0.6,1.5,0.9,4.2,0.9,8.1
			c0.1,4.4-0.9,8.8-3,12.8c-2,3.6-4.6,5.4-7.9,5.4c-3.5,0-5.8-1.6-6.8-4.8s-1.4-8.3-1.4-15.3C262.8,60.1,262.9,56.5,263.2,52.9
			L263.2,52.9z M365.8,30.1l-10.5-0.3l-7.6,0.1c-1.6,0.1-4,0.1-7.1,0.1c-0.8-0.3-1.5,1.8-2.2,6.1c-0.7,4.4-1.6,10.8-2.5,19.2
			c-0.6,4.6-1.1,8.9-1.6,13s-1,6.4-1.5,7.2c-1-3.5-2.4-10.2-4.3-20.3c-0.6-3.7-1.1-6.4-1.4-8.2c-0.8-5.6-1.8-11.2-3.2-16.7h-1.9
			c-2.1-0.2-4.1-0.3-6.2-0.3l-9.9,0.1c-2.7,0-5.3-0.3-7.9-0.7c0.6,3.1,1.5,6.2,2.6,9.2v-0.1c7,25.6,11.9,45.9,14.6,60.7l0.1,1.9
			c0,4.9-2.5,7.3-7.6,7.3c-1.9,0-3.4,0-4.5-0.1s-3.3-0.1-6.8-0.1c-0.6,2.8-0.9,5.7-0.9,8.6c0,4,0.5,8,1.7,11.8
			c2.3,0.2,4.6,0.3,6.8,0.3c11.8,0,21.1-2.6,27.9-7.8c6.5-4.8,11.5-11.3,14.7-18.7c3.6-9.3,6.5-18.8,8.7-28.6
			c2.2-8.5,3.2-12.3,2.9-11.2c1-3.7,2-8.1,3.2-13.3C363.1,41.1,364.6,34.6,365.8,30.1z M72.8,124c-8.7-5.2-19.2-7.9-31.6-7.8
			c-7.8,0-15.6,1-23.2,3.2c0.3,7.1,0.4,18.5,0.4,34.1v17.4c0,23,0.2,39.2,0.6,48.6c4.4,0.5,8.8,0.7,13.2,0.7
			c6.4,0,10.9-0.4,13.5-1.1l1.6-0.1v-29.2c0-1,0-2,0.1-3.2c0-1.2,0-2.3-0.1-3.5c0.6,0.1,1.2,0.1,1.7,0.1c0.5-0.1,0.9-0.1,1.2-0.1
			c5.8,0,11.6-1.3,16.8-4c5.2-2.6,9.7-6.3,13.2-10.9c3.4-4.4,5.6-9.6,6.3-15.1c0.1-1.3,0.2-2.6,0.2-3.9V149
			C86.1,137.6,81.5,129.2,72.8,124z M60.2,156.8c-0.9,1.3-2.2,2.4-3.7,2.9c-1.8,0.6-3.7,0.9-5.6,0.9h-6.3c-0.5-1.6-0.8-3.3-0.9-5
			c-0.1-1.9-0.2-4.2-0.2-7.1v-1.3c0-3.7,0-6.2-0.1-7.8c1,0,2.4,0,4.2,0.1c1.9,0.1,3.7,0.3,5.5,0.6c1.9,0.4,3.6,1.3,5,2.6l1.2,1.3
			c1.5,2.1,2.3,4.6,2.3,7.2C61.6,153.1,61.2,155,60.2,156.8L60.2,156.8z M152,179.2c-0.1-3.3-0.1-8.4-0.1-15.1c0-5,0.1-8.7,0.1-11.2
			c0-1.1-0.1-2.1-0.2-3.2c-0.1-0.8-0.2-1.6-0.2-2.4h-1.9l-9.1-0.4c-0.8-0.1-2.6-0.3-5.4-0.5c-2.8-0.2-5.1-0.4-6.8-0.4
			c-0.7-0.1-1.4,0-2,0.3c-0.3,0.5-0.4,1.2-0.1,1.7c0.2,0.6,0.3,1.2,0.3,1.9c-0.7-0.7-2.3-1.2-4.9-1.7c-2.8-0.5-5.6-0.7-8.3-0.7
			c-4.8,0.1-9.5,1.7-13.4,4.6c-4.2,3.2-7.5,7.4-9.5,12.2c-2.3,5.4-3.5,11.3-3.4,17.2c0,6,0.9,12,2.6,17.8c1.5,5.6,4.2,10.9,7.8,15.3
			c3.1,3.9,7.9,6.2,12.9,6.2c2.8,0,5.7-0.5,8.3-1.4c2.8-0.9,5.4-2.1,7.9-3.7v1c0,1.9,1.1,3.2,3.3,3.9h18.3c1.6-0.3,2.6-0.8,3-1.6
			c0.4-1.1,0.6-2.3,0.6-3.5V214c0.3-6,0.4-11.8,0.4-17.4l-0.1-8.6L152,179.2z M126.4,184.1c0,2.9-0.1,5.8-0.4,8.6
			c-0.1,1.7-0.8,3.3-1.8,4.6c-1.2,1.2-2.9,1.9-4.6,1.7c-3.2,0-6.1-1.6-7.8-4.2c-2-3.2-3-6.9-2.8-10.6c-0.1-2.5,0.2-5,0.9-7.5
			c0.6-2.4,1.9-4.5,3.7-6.1c2.1-1.7,4.8-2.6,7.5-2.5c1.3-0.1,2.7,0.2,3.8,0.8c0.8,0.8,1.3,1.9,1.3,3c0.2,1.5,0.2,4.3,0.2,8.4
			L126.4,184.1z M314,147c-1.6,0.1-4,0.1-7.1,0.1c-0.8-0.3-1.5,1.7-2.2,6.1c-0.7,4.4-1.6,10.8-2.5,19.2c-0.6,4.6-1.1,8.9-1.6,13
			s-1,6.4-1.5,7.2c-1-3.5-2.4-10.2-4.3-20.3c-0.6-3.7-1.1-6.4-1.4-8.2c-0.8-5.6-1.8-11.2-3.2-16.7h-1.9c-2.1-0.2-4.1-0.3-6.2-0.3
			l-9.9,0.1c-2.7,0-5.3-0.3-7.9-0.7c0,0.1,0.1,0.3,0.1,0.4H263c-0.5,0-1.1,0-1.8-0.1c-0.7,0-1.4,0-2.1,0.1l-2,0.1
			c-3.8,0.3-8.2,0.5-13.2,0.7l-0.1-1.4v-26.3c-1.9,0.3-3.7,0.4-5.6,0.4c-1.2,0-3-0.1-5.3-0.3l-1-0.1c-2.1-0.2-3.9-0.3-5.5-0.3
			s-3.4,0.1-5.5,0.3l-0.1,27.5c-4.1,0-7.4,0-10-0.1c0-0.2,0-0.4,0-0.6h-3.4c-0.5,0-1.1,0-1.8-0.1c-0.7,0-1.4,0-2.1,0.1l-2,0.1
			c-3.8,0.3-8.2,0.5-13.2,0.7l-0.1-1.4v-26.2c-1.9,0.3-3.7,0.4-5.6,0.4c-1.2,0-3-0.1-5.3-0.3l-1-0.1c-2.1-0.2-3.9-0.3-5.5-0.3
			s-3.4,0.1-5.5,0.3l-0.1,27.5c-4.2,0-7.6,0-10.2-0.1l-0.4,19h4.3c0.8,0,1.6,0,2.7,0.1c1.1,0,2.3,0,3.4-0.1v7.2
			c0,6.6,0.1,12.5,0.4,17.6c0.3,5.2,0.9,10.4,1.7,15.5c2.1,5,6.4,8.5,13,10.6c7.5,2.2,15.2,3.2,23,3.1c2.6,0,5.1-0.1,7.6-0.3
			c0.9-2.7,1.3-5.5,1.3-8.4c0-3.6-0.3-7.2-0.9-10.8v0.1l-0.1-0.6v-1.3l-3,0.1c-3.9,0-7.8-0.4-11.7-1.3c-3.7-0.9-6.3-2.2-7.8-4
			c0.1-3.5,0.1-12.8,0.1-28.1h21.6v0.4h4.3c0.8,0,1.6,0,2.7,0.1c1.1,0,2.3,0,3.4-0.1v7.2c0,6.6,0.1,12.5,0.4,17.6
			c0.3,5.2,0.9,10.4,1.7,15.5c2.1,5,6.4,8.5,13,10.6c7.5,2.2,15.2,3.2,23,3.1c2.6,0,5.1-0.1,7.6-0.3c0.9-2.7,1.3-5.5,1.3-8.4
			c0-3.6-0.3-7.2-0.9-10.8v0.1l-0.2-0.6v-1.3l-3,0.1c-3.9,0-7.8-0.4-11.7-1.3c-3.7-0.9-6.3-2.2-7.8-4c0.1-3.5,0.1-12.8,0.1-28.1
			h22.5c-0.2-1.1-0.3-2.2-0.3-3.3l0.1-3.2l0.1-1.6c0.1-0.9,0.1-1.7,0.2-2.3c7,25.6,11.8,45.8,14.5,60.7l0.1,1.9
			c0,4.9-2.5,7.3-7.6,7.3c-1.9,0-3.4-0.1-4.5-0.1c-1.1-0.1-3.3-0.1-6.8-0.1c-0.6,2.8-0.9,5.7-0.9,8.6c0,4,0.5,8,1.7,11.8
			c2.3,0.2,4.6,0.3,6.8,0.3c11.8,0,21.1-2.6,27.9-7.8c6.5-4.8,11.5-11.3,14.7-18.7c3.6-9.3,6.5-18.9,8.6-28.6
			c2.2-8.5,3.2-12.3,2.9-11.2c1-3.7,2-8.1,3.2-13.3c1.9-8.5,3.5-14.9,4.6-19.4l-10.5-0.3L314,147z"/>
	</g>
</g>
</svg>
